<svg width="500" height="400" viewBox="0 0 500 400" xmlns="http://www.w3.org/2000/svg" xmlns:xlink="http://www.w3.org/1999/xlink"><title>Customer-CCO Blue</title><defs><path id="a" d="M0 76.314h299.653V0H0z"/></defs><g fill="none" fill-rule="evenodd"><path fill="#F8F8F8" d="M0 0h500v400H0z"/><g transform="translate(100 162)"><path d="M13.273 59.39v3c-1.467-1.225-2.985-1.84-4.553-1.84-1.73 0-3.185.62-4.367 1.86-1.192 1.23-1.786 2.74-1.786 4.52 0 1.762.594 3.248 1.786 4.458 1.19 1.212 2.65 1.816 4.378 1.816.894 0 1.652-.145 2.278-.437.347-.145.71-.34 1.082-.587.375-.247.77-.545 1.183-.894v3.067c-1.453.823-2.977 1.237-4.575 1.237-2.404 0-4.455-.837-6.153-2.514C.847 71.388 0 69.35 0 66.966c0-2.14.71-4.048 2.13-5.723 1.743-2.053 3.997-3.078 6.764-3.078 1.51 0 2.97.408 4.38 1.225zM20.05 58.49v14.426h4.946V75.3H17.52V58.49" fill="#006ABA"/><mask id="b" fill="#fff"><use xlink:href="#a"/></mask><path fill="#006ABA" mask="url(#b)" d="M28.614 75.3h2.53V58.49h-2.53M36.306 75.3V57.333L48.56 70.176V58.49h2.532v17.824L38.837 63.527V75.3M56.25 75.3h2.53V58.49h-2.53M76.288 59.39v3c-1.466-1.225-2.984-1.84-4.553-1.84-1.73 0-3.184.62-4.366 1.86-1.194 1.23-1.788 2.74-1.788 4.52 0 1.762.594 3.248 1.787 4.458 1.19 1.212 2.648 1.816 4.377 1.816.892 0 1.65-.145 2.275-.437.35-.145.71-.34 1.084-.587.374-.247.77-.545 1.182-.894v3.067c-1.453.823-2.976 1.237-4.574 1.237-2.404 0-4.455-.837-6.153-2.514-1.697-1.688-2.544-3.725-2.544-6.11 0-2.14.71-4.048 2.13-5.723 1.742-2.053 3.997-3.078 6.764-3.078 1.51 0 2.968.408 4.378 1.225M89.922 68.83l-2.495-5.718-2.613 5.717h5.108zm1.035 2.386h-7.2L81.884 75.3H79.15l8.323-17.86 8.025 17.86h-2.776l-1.765-4.084zM101.194 58.49v14.426h4.945V75.3h-7.477V58.49M129.18 59.39v3c-1.466-1.225-2.984-1.84-4.553-1.84-1.727 0-3.184.62-4.366 1.86-1.19 1.23-1.785 2.74-1.785 4.52 0 1.762.596 3.248 1.786 4.458 1.19 1.212 2.65 1.816 4.38 1.816.89 0 1.65-.145 2.276-.437.347-.145.71-.34 1.082-.587.375-.247.77-.545 1.182-.894v3.067c-1.45.823-2.976 1.237-4.574 1.237-2.404 0-4.455-.837-6.153-2.514-1.696-1.688-2.545-3.725-2.545-6.11 0-2.14.71-4.048 2.13-5.723 1.742-2.053 3.997-3.078 6.764-3.078 1.512 0 2.97.408 4.378 1.225M142.755 68.83l-2.494-5.718-2.613 5.717h5.108zm1.035 2.386h-7.2l-1.872 4.084h-2.734l8.32-17.86 8.027 17.86h-2.775l-1.765-4.084zM154.21 66.214h.806c2.402 0 3.604-.92 3.604-2.755 0-1.723-1.17-2.582-3.506-2.582h-.904v5.336zm3.168 1.923l5.218 7.163h-3.11l-4.817-6.882h-.46V75.3h-2.532V58.49h2.98c2.224 0 3.83.418 4.82 1.253 1.09.93 1.636 2.155 1.636 3.68 0 1.19-.34 2.214-1.026 3.07-.684.856-1.588 1.405-2.71 1.644zM175.37 60.876h-6.74v4.05h6.545v2.384h-6.546v5.604h6.74V75.3H166.1V58.49h9.273M188.573 66.835c0 1.855.625 3.38 1.876 4.577 1.24 1.196 2.675 1.794 4.305 1.794 1.765 0 3.255-.608 4.47-1.828 1.212-1.23 1.82-2.73 1.82-4.5 0-1.79-.6-3.29-1.8-4.5-1.192-1.217-2.667-1.825-4.425-1.825-1.75 0-3.23.608-4.438 1.825-1.206 1.204-1.81 2.69-1.81 4.457m-2.566-.027c0-2.365.87-4.398 2.608-6.094 1.73-1.698 3.81-2.547 6.24-2.547 2.4 0 4.456.857 6.17 2.568 1.725 1.712 2.588 3.77 2.588 6.17 0 2.417-.865 4.468-2.596 6.15-1.74 1.692-3.836 2.537-6.294 2.537-2.175 0-4.128-.75-5.86-2.255-1.903-1.66-2.856-3.837-2.856-6.53M210.167 66.12h.95c2.33 0 3.497-.895 3.497-2.683 0-1.73-1.204-2.596-3.608-2.596h-.84v5.28zm0 2.386v6.796h-2.532V58.49h2.877c1.41 0 2.474.1 3.194.296.725.196 1.365.57 1.918 1.114.964.947 1.447 2.14 1.447 3.582 0 1.543-.515 2.767-1.546 3.67-1.034.903-2.426 1.354-4.18 1.354h-1.177zM225.706 60.876V75.3h-2.53V60.876h-3.868V58.49h10.253v2.386M233.122 75.3h2.53V58.49h-2.53M242.4 66.835c0 1.855.624 3.38 1.875 4.577 1.243 1.196 2.678 1.794 4.305 1.794 1.767 0 3.257-.608 4.47-1.828 1.215-1.23 1.823-2.73 1.823-4.5 0-1.79-.6-3.29-1.8-4.5-1.19-1.217-2.667-1.825-4.426-1.825-1.753 0-3.23.608-4.437 1.825-1.206 1.204-1.81 2.69-1.81 4.457m-2.567-.027c0-2.365.87-4.398 2.608-6.094 1.73-1.698 3.81-2.547 6.24-2.547 2.398 0 4.457.857 6.173 2.568 1.723 1.712 2.586 3.77 2.586 6.17 0 2.417-.865 4.468-2.597 6.15-1.737 1.692-3.835 2.537-6.294 2.537-2.175 0-4.128-.75-5.86-2.255-1.904-1.66-2.857-3.837-2.857-6.53M261.688 75.3V57.333l12.255 12.843V58.49h2.532v17.824L264.22 63.527V75.3M291.143 60.986l-2.06 1.22c-.385-.667-.752-1.104-1.1-1.306-.363-.233-.83-.35-1.405-.35-.703 0-1.288.2-1.753.6-.464.39-.698.885-.698 1.48 0 .82.61 1.48 1.83 1.98l1.678.686c1.363.55 2.36 1.224 2.992 2.018.634.794.95 1.768.95 2.92 0 1.546-.518 2.823-1.553 3.833-1.04 1.015-2.33 1.523-3.87 1.523-1.46 0-2.664-.435-3.615-1.302-.938-.868-1.522-2.086-1.754-3.655l2.57-.566c.117.988.32 1.67.61 2.047.522.727 1.285 1.09 2.287 1.09.79 0 1.447-.265 1.97-.792.524-.53.785-1.2.785-2.012 0-.325-.045-.624-.135-.896-.09-.273-.232-.522-.424-.75-.193-.23-.44-.442-.744-.642-.304-.198-.665-.388-1.086-.57l-1.618-.673c-2.294-.972-3.44-2.392-3.44-4.26 0-1.26.48-2.316 1.44-3.163.96-.855 2.16-1.282 3.598-1.282 1.94 0 3.453.94 4.543 2.82M256.976 33.792h33.793V1.18h-33.794M221.837 33.792h33.792V1.18h-33.793M186.698 33.792h33.792V1.18h-33.792"/><path d="M273.876 8.618c-4.562 0-8.278 3.72-8.278 8.288 0 4.574 3.716 8.288 8.278 8.288 4.57 0 8.29-3.714 8.29-8.288 0-4.567-3.72-8.288-8.29-8.288m0 20.258c-6.603 0-11.974-5.364-11.974-11.97 0-6.594 5.37-11.973 11.974-11.973 6.608 0 11.973 5.38 11.973 11.973 0 6.606-5.366 11.97-11.974 11.97M249.902 25.194c-4.563 0-8.278-3.714-8.278-8.29 0-4.567 3.715-8.286 8.278-8.286 2.223 0 4.24.884 5.727 2.315v11.945c-1.49 1.432-3.505 2.316-5.728 2.316M255.63 0v6.404c-1.703-.933-3.652-1.47-5.728-1.47-6.604 0-11.973 5.376-11.973 11.97 0 6.608 5.368 11.97 11.972 11.97 2.076 0 4.025-.535 5.727-1.468v6.386h1.346V0h-1.347M212.222 16.906c0-4.565 3.71-8.282 8.268-8.286v16.576c-4.56-.006-8.268-3.718-8.268-8.29M220.49.002v4.933c-6.598.004-11.965 5.38-11.965 11.97 0 6.605 5.367 11.968 11.965 11.97v4.917h1.347V.002h-1.347" fill="#FFF" mask="url(#b)"/><path d="M295.555 59.937V61.2h1.176c.32 0 .627-.086.676-.56.07-.626-.386-.703-.675-.703h-1.175zm-.473-.413h1.64c.568 0 1.117.103 1.166.933.02.474-.125.647-.482.918.376.24.386.298.443.935.038.482-.03.56.174.876h-.56l-.076-.46c-.078-.436.134-1.11-.627-1.11h-1.205v1.57h-.473v-3.662zm1.234-1.014c-1.62 0-2.94 1.32-2.932 2.95 0 1.62 1.312 2.942 2.94 2.932 1.62 0 2.943-1.312 2.943-2.94 0-1.62-1.322-2.942-2.95-2.942zm.01 6.268c-1.842 0-3.328-1.484-3.328-3.327-.01-1.83 1.486-3.325 3.327-3.325 1.832 0 3.328 1.495 3.328 3.326 0 1.844-1.496 3.32-3.328 3.328z" fill="#006ABA" mask="url(#b)"/></g></g></svg>