<svg width="500" height="400" viewBox="0 0 500 400" xmlns="http://www.w3.org/2000/svg" xmlns:xlink="http://www.w3.org/1999/xlink"><title>Customer-Abbott Blue</title><defs><path id="a" d="M0 74.78h93.422V.038H0z"/><path id="c" d="M0 75.622h299.68V.88H0z"/></defs><g fill="none" fill-rule="evenodd"><path fill="#F8F8F8" d="M0 0h500v400H0z"/><g transform="translate(100 162)"><g transform="translate(0 .842)"><mask id="b" fill="#fff"><use xlink:href="#a"/></mask><path d="M81.014.037H0V12.48h76.973v.01c2.22 0 4.01 1.8 4.01 4.012v41.814l-.015.027c-.016 2.212-1.817 3.99-4.02 3.99H16.462c-2.214 0-4.023-1.795-4.023-4.017V41.414c0-2.216 1.81-4.012 4.023-4.012H68.51V24.966h-56.1C5.553 24.966 0 30.508 0 37.366v25.002C0 69.22 5.553 74.78 12.41 74.78h68.604c6.863 0 12.408-5.56 12.408-12.412V12.445c0-6.852-5.545-12.408-12.408-12.408" fill="#006ABA" mask="url(#b)"/></g><path d="M123.772 68.59l-3.356-8.884-3.405 8.884h6.762zm4.295 6.587h-1.803l-2-5.254h-7.794l-1.974 5.254h-1.85l7.105-17.42h1.384l6.933 17.42zM138.58 65.877H143.096c2.023-.028 2.392-.028 2.887-.126 1.8-.295 2.564-1.65 2.564-3.257 0-1.085-.37-2.17-1.26-2.787-.81-.54-1.38-.54-4.49-.567h-4.22v6.737zm0 9.3h-1.557v-17.42h5.946c2.642 0 3.8 0 4.837.47 1.36.642 2.346 2.173 2.346 4.294 0 1.034-.323 3.898-3.333 4.565-.836.2-1.234.2-4.367.248h-3.874v7.844zM153.267 75.177h-1.433V63.41h1.433v1.873c.742-1.555 1.973-2.07 3.43-2.07.347 0 .516.02.814.072v1.31c-.443-.074-.493-.074-.888-.074-.396 0-1.555.02-2.42.934-.912 1.016-.912 2.223-.935 4.64v5.083M164.15 64.37c-1.04 0-2.05.42-2.716 1.21-1.012 1.185-1.11 2.938-1.11 3.902 0 3.356 1.728 4.707 3.753 4.707 2.588 0 3.797-2.046 3.824-4.785 0-.664.05-5.036-3.75-5.036m-.073 11.105c-3.433 0-5.31-2.714-5.31-6.02 0-3.06 1.556-6.318 5.36-6.318 3.722 0 5.302 3.058 5.325 6.094.028 3.578-2.047 6.245-5.375 6.245M187.69 75.177h-1.454V68.81c0-2.194 0-2.86-.42-3.476-.393-.592-1.114-.837-1.826-.837-2.32 0-2.962 2.293-3.062 2.787-.147.69-.174 1.43-.174 3.01v4.883h-1.43v-6.51c-.024-1.236-.024-1.703-.096-2.224-.05-.368-.274-1.946-2.197-1.946-1.01 0-2 .493-2.592 1.578-.59 1.087-.59 2.27-.59 4.39v4.712h-1.456V63.43h1.455v2.418c.666-2.658 3.01-2.686 3.48-2.686 1.33 0 3.086.64 3.258 2.936.07-.32.223-.865.592-1.406.74-1.112 1.9-1.53 3.06-1.53 1.407 0 2.245.566 2.69 1.11.74.96.74 2.22.762 5.108v5.797" fill="#006ABA"/><mask id="d" fill="#fff"><use xlink:href="#c"/></mask><path d="M191.417 75.177h1.43v-11.77h-1.43v11.77zm0-14.533h1.43V58.4h-1.43v2.244zM201.41 68.54c.766.2 1.753.445 2.492 1.26.517.564.79 1.31.79 2.07 0 1.73-1.36 3.607-4.416 3.607-1.507 0-2.47-.493-2.962-.84-.84-.565-1.358-1.31-1.777-2.32l1.432-.494c.27 1.06 1.28 2.345 3.306 2.345 2.023 0 2.985-1.084 2.985-2.32 0-1.53-1.553-1.902-2.515-2.097-.444-.096-.938-.2-1.407-.296-1.088-.246-3.062-.74-3.062-3.035 0-1.212.693-3.284 4.22-3.284 1.162 0 2.098.272 2.74.667 1.06.644 1.357 1.628 1.457 1.998l-1.407.348c-.074-.322-.22-.888-1.013-1.334-.492-.296-1.16-.42-1.85-.42-.888 0-2.714.222-2.714 1.978 0 1.28 1.155 1.6 2.466 1.9l1.234.27M216.167 68.12c-.123-1.035-.443-2.045-1.235-2.787-.493-.443-1.284-.89-2.44-.89-2.027 0-3.508 1.434-3.776 3.677h7.45zm1.652 3.947c-.173.425-.494 1.09-1.11 1.78-.347.37-1.48 1.63-4.02 1.63-3.9 0-5.604-2.985-5.604-6.272 0-3.895 2.564-6.068 5.43-6.068 3.554 0 5.405 3.11 5.303 6.168h-9.13c-.025.618.026 1.53.37 2.444.94 2.42 3.136 2.42 3.63 2.42 1.28 0 2.763-.45 3.775-2.468l1.354.365zM232.823 64.64h-2.664v10.54h-1.46V64.64h-2.59v-1.232h2.59v-2.246c.026-1.777.026-1.9.175-2.315.348-.988 1.186-1.433 2.443-1.433.544 0 1.036.096 1.505.17v1.434c-.372-.15-.692-.297-1.38-.297-.248 0-.842 0-1.137.665-.126.298-.126.395-.147 1.652v2.37h2.663v1.232M239.734 64.37c-1.037 0-2.05.42-2.714 1.21-1.014 1.185-1.113 2.938-1.113 3.902 0 3.356 1.728 4.707 3.752 4.707 2.593 0 3.8-2.046 3.825-4.785 0-.664.047-5.036-3.75-5.036m-.076 11.105c-3.43 0-5.308-2.714-5.308-6.02 0-3.06 1.555-6.318 5.36-6.318 3.72 0 5.3 3.058 5.328 6.094.024 3.578-2.048 6.245-5.38 6.245M249.432 75.177h-1.43V63.41h1.43v1.873c.742-1.555 1.977-2.07 3.43-2.07.345 0 .52.02.816.072v1.31c-.45-.074-.494-.074-.89-.074-.394 0-1.557.02-2.42.934-.913 1.016-.913 2.223-.936 4.64v5.083M273.84 75.177h-11.303V57.732h1.675v15.92h9.627M276.255 75.177h1.433v-11.77h-1.433v11.77zm0-14.533h1.433V58.4h-1.433v2.244zM286.816 64.64h-2.662v10.54h-1.457V64.64h-2.59v-1.232h2.59v-2.246c.022-1.777.022-1.9.173-2.315.343-.988 1.187-1.433 2.44-1.433.544 0 1.042.096 1.506.17v1.434c-.367-.15-.692-.297-1.384-.297-.245 0-.84 0-1.133.665-.123.298-.123.395-.146 1.652v2.37h2.662v1.232M296.938 68.12c-.12-1.035-.44-2.045-1.23-2.787-.493-.443-1.285-.89-2.447-.89-2.022 0-3.5 1.434-3.774 3.677h7.452zm1.654 3.947c-.172.425-.493 1.09-1.11 1.78-.346.37-1.478 1.63-4.02 1.63-3.9 0-5.606-2.985-5.606-6.272 0-3.895 2.57-6.068 5.434-6.068 3.55 0 5.4 3.11 5.302 6.168h-9.13c-.024.618.024 1.53.368 2.444.94 2.42 3.138 2.42 3.63 2.42 1.28 0 2.763-.45 3.775-2.468l1.357.365zM127.42 22.102h8.456l-4.193-12.526h-.11l-4.154 12.526zm12.298-21.2l9.733 29.11c1.163 3.55 1.976 4.372 4.008 4.372h1.986v5.123h-21.252v-5.123h1.735c1.75 0 3.214-.234 3.214-.876 0-.585-.066-1.22-.29-2.095l-1.225-4.194H125.74l-.695 2.326c-.646 2.04-.874 2.91-.874 3.723 0 .94 2.04 1.114 3.615 1.114h1.68v5.123h-17.113v-5.123h1.977c2.04 0 2.85-.822 4.02-4.37l9.724-29.11h11.644zM168.488 25.88c0 5.938 1.334 9.494 4.594 9.494 3.268 0 4.6-3.556 4.6-9.495 0-5.938-1.332-9.485-4.6-9.485-3.26 0-4.594 3.547-4.594 9.484m-9.674-17.817c0-1.63-.41-2.503-2.095-2.503h-2.677V.903h14.445V15.4c2.148-2.452 4.887-4.017 7.504-4.017 8.736 0 11.99 6.816 11.99 14.496 0 7.68-3.254 14.49-11.99 14.49-3.665 0-6.926-1.273-8.967-4.48l-1.684 3.617h-6.526V8.063M201.154 25.88c0 5.938 1.34 9.494 4.595 9.494 3.262 0 4.6-3.556 4.6-9.495 0-5.938-1.338-9.485-4.6-9.485-3.257 0-4.596 3.547-4.596 9.484m-9.672-17.817c0-1.63-.413-2.503-2.093-2.503h-2.68V.903h14.444V15.4c2.152-2.452 4.89-4.017 7.51-4.017 8.73 0 11.996 6.816 11.996 14.496 0 7.68-3.266 14.49-11.995 14.49-3.677 0-6.93-1.273-8.975-4.48l-1.683 3.617h-6.525V8.063M233.757 25.88c0 6.867 1.22 9.837 4.717 9.837 3.496 0 4.718-2.97 4.718-9.838 0-6.87-1.222-9.84-4.718-9.84-3.497 0-4.717 2.97-4.717 9.84m19.742 0c0 9.315-6.35 14.49-15.026 14.49-8.677 0-15.028-5.175-15.028-14.49 0-9.318 6.35-14.497 15.028-14.497 8.676 0 15.025 5.18 15.025 14.496M295.014 26.345v4.546c0 2.67-.578 4.25-2.794 4.25-1.34 0-1.978-.993-1.978-2.214V16.908h7.156V12.26h-7.156V1.43h-5.765c-.472 4.83-1.978 10.83-7.8 10.83h-9.086V1.43h-5.76c-.475 4.83-1.982 10.83-7.806 10.83v4.648h3.905v14.624c0 5.937 3.313 8.838 9.31 8.838 6.992 0 9.776-3.136 9.776-8.838v-5.187h-4.642v4.546c0 2.67-.588 4.25-2.804 4.25-1.34 0-1.98-.993-1.98-2.214V16.908h12.992v14.624c0 5.937 3.31 8.838 9.31 8.838 6.99 0 9.787-3.136 9.787-8.838v-5.187h-4.666" fill="#006ABA" mask="url(#d)"/></g></g></svg>