<svg width="500" height="400" viewBox="0 0 500 400" xmlns="http://www.w3.org/2000/svg" xmlns:xlink="http://www.w3.org/1999/xlink"><title>Customer-Bayer Blue</title><defs><path id="a" d="M102.494.268H0v102.496h102.494V.268z"/></defs><g fill="none" fill-rule="evenodd"><path fill="#F8F8F8" d="M0 0h500v400H0z"/><path d="M237.86 178.96c0-3.066.213-3.496 5.78-3.566 5.136-.07 10.913 1.924 10.913 9.273 0 6.994-4.496 9.77-11.913 9.77h-4.78v-15.476zm0 17.976h5.136c8.845 0 13.696 4.423 13.696 11.987 0 8.56-5.848 10.84-11.984 10.84-5.706 0-6.847-1.07-6.847-5.493v-17.334zm8.633 25.323c10.843 0 17.83-3.923 17.83-13.84 0-8.416-5.99-12.128-12.91-13.05v-.144c6.705-1.356 10.63-5.495 10.63-10.987 0-3.923-1.57-6.846-4.426-8.776-2.78-1.854-7.057-2.64-12.625-2.566H224.38v2.068c6.273.428 6.417.57 6.417 4.566v36.092c0 3.994-.144 4.138-6.418 4.568v2.067h22.113zM301.72 187.336v2.062c3.408.142 4.12.57 5.4 3.697 3.553 8.526 9.45 23.665 11.16 28.57.425 1.21.568 2.272.568 3.484 0 1.63-.642 3.764-1.708 6.04-1.067 2.342-2.344 2.985-3.128 2.985-.71 0-1.35-.214-2.63-1.497-.71-.635-1.278-.992-2.132-.992-1.348 0-3.126 1.918-3.126 3.98 0 1.708 1.99 3.698 4.977 3.698 2.84 0 6.466-.857 10.094-11.377 4.404-12.648 10.946-29.99 13.147-34.964 1.28-2.843 1.706-3.413 5.26-3.625v-2.062h-13.644v2.062l3.694.357c1.207.14 1.35.99.994 2.413-1.065 4.266-4.76 14.997-7.888 23.523h-.143c-3.27-8.598-6.112-16.342-8.74-23.806-.428-1.28-.57-2.06 1.065-2.2l3.054-.286v-2.062H301.72zM385.664 186.49l.855 5.707c4.707-4.136 6.847-5.706 9.414-5.706 2.783 0 3.78 1.927 3.78 3.494 0 2.213-1.57 3.995-3.28 3.995-.356 0-.93-.072-1.427-.357-2.068-1.14-3.282-1.567-4.424-1.567-1.638 0-4.064 1.852-4.064 7.343l-.03 22.86h-6.68l.003-28.637c0-2.57-.427-2.924-2.282-3.21l-2.71-.357v-1.784l10.844-1.78zM347.04 200.828c0-2.926 1.07-11.84 8.49-11.84 6.633 0 7.416 6.776 7.416 9.556 0 1.36-.43 2.284-2.423 2.284H347.04zm20.47 2.71h-20.543c-.14 7.42 1.64 15.98 10.486 15.98 4.645 0 7.303-2.328 9.21-5.464l2.37 1.25c-2.193 4.525-6.158 7.79-13.006 7.85-11.63.143-16.48-6.777-16.48-18.045 0-10.702 5.28-18.62 16.407-18.62 13.054 0 14.41 10.127 14.41 14.338 0 2.355-1.356 2.71-2.853 2.71zM290.956 212.09c0 5.785-4.427 7.285-7.21 7.285-4.43 0-6.57-3.145-6.57-7.354 0-3.356 1.57-5.072 5.567-6.57 2.86-1.073 6.64-2.43 8.213-3.428v10.07zm6.422 3.93c0 2.567.428 2.92 2.284 3.203l2.71.356v1.784l-10.842 1.78-.642-4.275c-2.287 1.495-6.216 4.148-10.643 4.29-6.715 0-10.282-4.787-10.282-10.142 0-3.358 1.5-6.925 6.64-8.498 5.64-1.785 12.567-3.57 14.353-5.426v-2.997c0-5.715-3.286-7.14-6.07-7.14-2.856 0-5.786 1.71-7.357 6.997-.354 1.212-.784 1.997-2.284 1.997-1.36 0-4-1.07-4-3.354 0-3.928 6.355-8.14 14.426-8.14 10.78 0 11.71 5.354 11.71 9.498l-.004 20.067zM151.248 244.108c-25.68 0-46.498-20.82-46.498-46.5s20.818-46.496 46.498-46.496c25.68 0 46.497 20.817 46.497 46.497 0 25.678-20.817 46.498-46.497 46.498m0-97.262c-28.035 0-50.763 22.728-50.763 50.763 0 28.033 22.728 50.763 50.763 50.763 28.035 0 50.762-22.73 50.762-50.764 0-28.036-22.727-50.764-50.762-50.764" fill="#006ABA"/><path d="M110.237 204.44v-13.73h9.49c2.1.006 3.9 1.81 3.9 3.905 0 1.05-.39 1.99-1.075 2.68.88.73 1.407 1.836 1.407 3.07 0 2.19-1.878 4.07-4.07 4.074h-9.653zm2.91-8.32h6.15c.84 0 1.42-.578 1.42-1.42 0-.838-.58-1.418-1.42-1.418h-6.15v2.837zm0 5.75l6.325-.005c.934 0 1.583-.654 1.583-1.587 0-.933-.65-1.588-1.583-1.588h-6.326v3.18zM155.822 190.697l-4.936 6.615-4.938-6.61h-3.47l6.95 8.93v4.8h2.912v-4.803l6.954-8.928M174.406 193.27v-2.57H162.03v13.73h12.376v-2.572h-9.467v-3.176h9.127v-2.57h-9.128v-2.84M151.846 233.845h-4.24v5.41h-2.91v-13.73h9.25c2.23.01 4.138 1.93 4.138 4.165 0 1.87-1.192 3.494-2.91 3.966l4.213 5.598h-3.485l-4.056-5.41zm1.748-5.75h-5.988v3.18h5.988c.927-.007 1.574-.662 1.574-1.587 0-.93-.647-1.584-1.574-1.593zM186.345 199.022h-4.24v5.41h-2.908v-13.73h9.247c2.232.01 4.14 1.93 4.14 4.165 0 1.87-1.192 3.494-2.91 3.967l4.213 5.597-3.486.003-4.055-5.41zm1.748-5.75h-5.988v3.18h5.988c.928-.007 1.574-.662 1.574-1.587 0-.93-.646-1.584-1.574-1.592zM157.077 210.513v-2.57H144.7v13.73h12.377V219.1h-9.466v-3.174h9.13v-2.574h-9.13v-2.84M137.7 199.49l-2.874-5.917-2.874 5.918h5.747zm1.24 2.574h-8.234l-1.14 2.367h-3.1l6.863-13.73h2.996l6.862 13.73h-3.098l-1.15-2.366zM153.757 182.247l-2.873-5.917-2.874 5.917h5.747zM155 184.82h-8.236l-1.14 2.368h-3.1l6.863-13.73h2.997l6.864 13.73h-3.1l-1.15-2.367zM144.698 170.27V156.54h9.493c2.1.005 3.9 1.808 3.9 3.904 0 1.05-.392 1.99-1.076 2.678.878.73 1.408 1.838 1.408 3.072 0 2.19-1.877 4.07-4.068 4.073h-9.656zm2.91-8.32h6.15c.84 0 1.42-.577 1.42-1.42 0-.84-.58-1.418-1.42-1.418h-6.15v2.838zm0 5.75l6.325-.004c.935 0 1.584-.652 1.584-1.59 0-.93-.65-1.585-1.584-1.585h-6.325v3.18z" fill="#006ABA"/><path d="M104.265 197.61c0-25.952 21.034-46.985 46.984-46.985 25.946 0 46.98 21.033 46.98 46.984 0 25.947-21.034 46.983-46.98 46.983v-.972c25.41-.045 45.965-20.6 46.008-46.01-.043-25.414-20.6-45.967-46.01-46.013-25.412.046-45.967 20.6-46.014 46.012.047 25.41 20.602 45.965 46.015 46.01v.973c-25.95 0-46.985-21.036-46.985-46.984" fill="#A3A9B0"/><g transform="translate(100 146.093)"><mask id="b" fill="#fff"><use xlink:href="#a"/></mask><path d="M0 51.515C0 23.212 22.944.268 51.247.268v.97c-13.885 0-26.45 5.627-35.553 14.725C6.597 25.063.97 37.63.97 51.515c0 13.885 5.627 26.45 14.724 35.553 9.103 9.1 21.668 14.725 35.553 14.725 13.884 0 26.453-5.626 35.553-14.725 9.1-9.102 14.724-21.668 14.724-35.553 0-13.884-5.625-26.452-14.724-35.552C77.7 6.865 65.13 1.238 51.247 1.238v-.97c28.303 0 51.247 22.944 51.247 51.247 0 28.304-22.944 51.25-51.247 51.25S0 79.818 0 51.514" fill="#B7B7B7" mask="url(#b)"/></g></g></svg>