<svg width="500" height="400" viewBox="0 0 500 400" xmlns="http://www.w3.org/2000/svg" xmlns:xlink="http://www.w3.org/1999/xlink"><title>Customer-Merck Blue</title><defs><path id="a" d="M0 87.43h299.536V0H0z"/></defs><g fill="none" fill-rule="evenodd"><path fill="#F8F8F8" d="M0 0h500v400H0z"/><g transform="translate(100 156)"><path d="M21.857 21.858C21.857 9.784 31.645 0 43.717 0c12.075 0 21.858 9.784 21.858 21.858H21.857zM0 43.715c0-12.072 9.786-21.857 21.857-21.857 0 12.075 9.787 21.857 21.858 21.857-12.07 0-21.858 9.787-21.858 21.86C9.787 65.576 0 55.79 0 43.716M65.576 65.574c0 12.073-9.785 21.857-21.858 21.857-12.074 0-21.86-9.783-21.86-21.856h43.718" fill="#006ABA"/><path d="M65.576 21.858c12.07 0 21.86 9.785 21.86 21.857 0 12.075-9.79 21.86-21.86 21.86 0-12.073-9.785-21.86-21.858-21.86 12.073 0 21.858-9.783 21.858-21.857M155.645 65.57H145.61V36.174L132.77 65.57l-13.514-29.433V65.57h-9.367V21.858h13.388l9.648 22.624 9.173-22.624h13.545M168.002 21.858h17.856v7.67h-15.442v10.03h14.806v7.48h-14.806V58.16h15.442v7.41h-25.22V21.858M258.354 24.05c-12.93-7.663-34.877.772-34.877 19.674 0 16.27 16.985 29.295 34.877 20.58v-9.363c-13.772 9.65-25.755-.017-25.56-10.845.133-7.19 4.966-14.03 14.318-14.566 4.597-.26 7.713.884 11.242 4.257V24.05" fill="#006ABA"/><mask id="b" fill="#fff"><use xlink:href="#a"/></mask><path fill="#006ABA" mask="url(#b)" d="M262.476 65.57h9.296V22.277h-9.296M288.875 65.57l-16.158-23.478 13.914-19.717h10.86l-14.046 19.752 16.09 23.443M205.364 41.886c3.7 0 6.56-2.877 6.56-6.253 0-1.767-.382-6.505-7.626-6.505h-4.277v12.758h5.344zm-15.16-20.028h17.218c10.13 0 14.314 8.15 14.314 13.13 0 4.987-1.93 9.98-7.88 12.23l12.838 18.356H216.24l-16.22-23.488v23.488h-9.816V21.858z"/></g></g></svg>