<svg width="500" height="400" viewBox="0 0 500 400" xmlns="http://www.w3.org/2000/svg" xmlns:xlink="http://www.w3.org/1999/xlink"><title>Customer-Millennium Blue</title><defs><path id="a" d="M71.024.485H0v21.608h71.024V.485z"/><path id="c" d="M0 22.816h299.484V.583H0z"/></defs><g fill="none" fill-rule="evenodd"><path fill="#F8F8F8" d="M0 0h500v400H0z"/><g transform="translate(100 188)"><g transform="translate(0 .098)"><mask id="b" fill="#fff"><use xlink:href="#a"/></mask><path d="M33.164 19.98c-.315.4-.888 1.053-1.506 1.437-.25-.164-.51-.366-.756-.6-4.044-3.942-4.756-13.986-8.273-18.302.476-.622 1.08-1.12 1.53-1.45.223.163.48.364.767.62C28.8 5.21 29.603 15.5 33.164 19.98M54.572 1.064c.223.163.478.364.765.62 4.002 3.63 4.726 14.492 8.59 18.7.973 1.068 2.686 1.708 4.31 1.708h2.787v-.13c-.44-.078-1.28-.443-2.005-1.147C63.793 15.733 64.11.486 56.797.486H44.636c-5.492-.024-6.678 8.534-9.12 14.97C33.07 9.02 31.88.463 26.39.487H14.223C6.89.455 7.23 15.732 2.01 20.815c-.73.704-1.572 1.07-2.01 1.147v.13h2.788c1.623 0 3.336-.64 4.313-1.71 3.86-4.206 4.586-15.068 8.586-18.697.287-.257.546-.458.77-.62.494.33 1.178.987 1.53 1.45-3.52 4.315-4.228 14.36-8.275 18.3-.726.704-1.562 1.07-2.007 1.147v.13h2.788c1.627 0 3.338-.64 4.315-1.71 2.605-2.843 3.784-8.705 5.5-13.338 1.72 4.633 2.897 10.495 5.504 13.34.976 1.068 2.686 1.708 4.314 1.708H40.9c1.625 0 3.337-.64 4.317-1.71 2.602-2.843 3.782-8.7 5.5-13.338 1.72 4.633 2.898 10.495 5.502 13.34.974 1.068 2.69 1.708 4.31 1.708h2.79v-.13c-.44-.078-1.28-.443-2.008-1.147-4.048-3.946-4.755-13.985-8.274-18.3.422-.563 1.145-1.187 1.534-1.45M40.12 20.815c-.245.235-.5.437-.753.6-.558-.34-1.082-.9-1.507-1.437 3.558-4.48 4.36-14.77 8.238-18.294.283-.257.542-.458.768-.62.55.382 1.14.952 1.53 1.45-3.52 4.315-4.227 14.36-8.276 18.3" fill="#006ABA" mask="url(#b)"/></g><path d="M295.903 6.137V4.96h.764c.41 0 .806.107.806.585 0 .574-.505.592-1.017.592h-.553zm0 .352h.7l.957 1.508h.49l-1.012-1.51c.46-.078.854-.346.854-.943 0-.61-.342-.942-1.106-.942h-1.3v3.395h.417v-1.51zm.648-3.125c-1.655 0-2.934 1.286-2.934 2.933 0 1.65 1.28 2.938 2.935 2.938 1.656 0 2.934-1.288 2.934-2.938 0-1.647-1.278-2.933-2.933-2.933zm0 .42c1.422 0 2.48 1.112 2.48 2.513 0 1.407-1.058 2.52-2.48 2.52-1.42 0-2.48-1.113-2.48-2.52 0-1.4 1.06-2.514 2.48-2.514zM67.634 6.137V4.96h.766c.41 0 .804.107.804.585 0 .574-.506.592-1.018.592h-.552zm0 .352h.702l.956 1.508h.49l-1.012-1.51c.457-.078.852-.346.852-.943 0-.61-.34-.942-1.103-.942h-1.303v3.395h.417v-1.51zm.647-3.125c-1.656 0-2.935 1.286-2.935 2.933 0 1.65 1.28 2.938 2.936 2.938 1.657 0 2.936-1.288 2.936-2.938 0-1.647-1.28-2.933-2.935-2.933zm0 .42c1.422 0 2.478 1.112 2.478 2.513 0 1.407-1.056 2.52-2.477 2.52-1.42 0-2.477-1.113-2.477-2.52 0-1.4 1.057-2.514 2.478-2.514zM79.948 3.34h7.316l5.455 14.325L98.14 3.34h7.018v18.835h-4.455V7.243h-.105l-5.8 14.932h-4.536l-5.75-14.932h-.11v14.932h-4.454M265.373 3.34h7.316l5.455 14.325L283.56 3.34h7.027v18.835h-4.457V7.243h-.112l-5.784 14.932h-4.542L269.94 7.243h-.112v14.932h-4.455" fill="#006ABA"/><mask id="d" fill="#fff"><use xlink:href="#c"/></mask><path fill="#006ABA" mask="url(#d)" d="M110.312 22.174h4.72V3.34h-4.72M230.437 22.174h4.724V3.34h-4.723M138.426 3.34h4.723v15.367h9.998v3.468h-14.722M120.185 3.34h4.726v15.367h10.002v3.468h-14.727M156.66 3.34h17.555v3.384H161.38v4.244h12.407V14.3H161.38v4.507h13.37v3.368h-18.09M178.61 3.34h5.11l11.036 13.3h.104V3.34h4.513v18.835h-5.157L183.2 8.922h-.107v13.253h-4.482M204.524 3.34h5.113l11.03 13.3h.104V3.34h4.514v18.835h-5.162L209.116 8.922h-.105v13.253h-4.486M240.19 3.34h4.7v11.248c0 2.44 1.273 4.42 5.446 4.42 3.58 0 5.437-1.523 5.437-4.42V3.34h4.692v11.587c0 5.855-4.608 7.89-10.108 7.89-7.03 0-10.167-3.127-10.167-7.89V3.34"/></g></g></svg>