<svg width="500" height="400" viewBox="0 0 500 400" xmlns="http://www.w3.org/2000/svg" xmlns:xlink="http://www.w3.org/1999/xlink"><title>Customer-Takeda Blue</title><defs><path id="a" d="M296.5.2H1.156v98.875H296.5V.2z"/><path id="c" d="M0 28.708H25.51V1.058H0z"/><path id="e" d="M.967 28.708h21.66V1.058H.967v27.65z"/><path id="g" d="M.263 28.708H25.77V1.058H.263v27.65z"/><path id="i" d="M.71 28.708h25.507V1.058H.71z"/><path id="k" d="M22.407 28.392V1.416H1.103v26.976h21.304z"/></defs><g fill="none" fill-rule="evenodd"><path fill="#F8F8F8" d="M0 0h500v400H0z"/><g transform="translate(100 125.236)"><mask id="b" fill="#fff"><use xlink:href="#a"/></mask><path d="M148.44.2C52.198.2 1.157 68.46 1.157 68.46l20.926 14.154s2.54-6.33 8.316-15.406c.04 2.277.36 3.87.36 3.87 3.686 28.677 31.57 27.995 31.57 27.995H235.16s28.25.773 31.932-27.91c0 0 .284-1.476.314-3.734 5.692 8.854 8.214 14.995 8.214 14.995l20.88-13.988S244.694.2 148.44.2zM262.805 70.74s-3.75 21.952-28.012 21.952H62.23c-24.235 0-27.66-22.166-27.66-22.166-.943-5.888.198-9.905 2.03-12.69C54.054 34.858 88.63 3.983 148.373 3.983c60.267 0 95.116 31.322 112.556 54.333 2.025 2.545 2.788 6.728 1.876 12.426zm-22.26.757s-1.864.846-2.664.012c-.787-.828-.102-2.367-.102-2.367l7.802-16.39h-7.934l-1.22 2.177c-4.635-4.073-13.372-1.97-18.79 3.687-3.11 3.248-4.9 7.128-5.15 10.49-.872.583-2.357 1.478-4.26 2.223 0 0-1.862.87-2.66.036-.814-.83-.1-2.374-.1-2.374l13.86-28.49h-7.944l-7.287 14.28c-4.63-4.07-13.35-1.953-18.794 3.69-1.084 1.145-1.996 2.367-2.765 3.618l.016-.023c-.058.108-.117.19-.158.31-.168.287-.352.58-.514.858-4.285 7.505-9.676 8.733-9.676 8.733-11.373 3.403-12.655-2.156-12.655-2.156 12.71-4.698 17.513-10.283 17.063-14.55-.444-4.26-6.292-4.47-6.292-4.47-9.637-.596-17.96 6.133-19.952 12.72-.64 2.025-.81 4.064-.426 5.966-3.863 2.032-6.098 2.348-6.098 2.348-3.212 1.02-3.575-.495-3.986-1.43-.382-.918-1.807-9.132-1.807-9.132l13.506-8.826H143.3l-10.15 6.287c-2.307.942-1.418-1.448-1.418-1.448l8.272-16.79h-7.95l-13.436 27.248c-1.54.92-4.672 2.706-6.9 3.595 0 0-1.853.87-2.653.036-.798-.83-.122-2.374-.122-2.374l7.84-16.403h-7.95l-1.223 2.194c-4.648-4.07-13.38-1.954-18.81 3.69-5.406 5.656-6.778 13.105-3.07 16.664 2.958 2.844 8.28 2.308 13.06-.91 0 0 1.208-1.038 1.877.172.684 1.27 3.42 4.125 9.722 1.64 2.023-.794 3.848-1.705 5.403-2.57l-1.66 3.338h7.95l3.973-8.04 3.482-2.224s1.034-.84 1.467.947c0 0 1.733 6.778 2.393 7.66.663.888 1.993 2.884 7.585 1.275 4.272-1.233 8.272-2.753 10.376-3.64 1.88 2.58 5.46 4.326 11.38 4.326 8.698 0 14.853-4.154 17.445-6.33.207 1.723.863 3.236 2.04 4.357 2.954 2.844 8.294 2.308 13.085-.91 0 0 1.2-1.038 1.842.172.71 1.27 3.435 4.125 9.742 1.64 2.882-1.152 4.832-2.248 6.12-3.082.31.876.832 1.668 1.52 2.33 2.96 2.836 8.3 2.3 13.093-.906 0 0 1.18-1.043 1.866.16.67 1.283 3.426 4.137 9.723 1.627 6.293-2.478 8.11-4.724 8.11-4.724l-1.59-2.802c-.227.125-2.162 1.668-5.193 2.855zM102.52 66.79c-2.723 3.864-6.616 5.823-8.696 4.358-2.038-1.455-1.477-5.775 1.29-9.632 2.726-3.88 6.598-5.824 8.67-4.362 2.05 1.465 1.466 5.774-1.264 9.637zm56.38-2.818s1.762-5.996 7.573-8.404c0 0 1.645-.554 2.516.168 0 0 1.254 1.19-.23 3.41-1.323 1.965-4.468 5.516-7.937 6.71 0 0-3.112 1.35-1.922-1.884zm40.144 2.82c-2.736 3.862-6.653 5.82-8.68 4.356-2.086-1.455-1.525-5.775 1.24-9.632 2.75-3.88 6.633-5.824 8.684-4.362 2.038 1.465 1.502 5.774-1.244 9.637zm32.296.143c-2.73 3.878-6.62 5.827-8.682 4.35-2.046-1.45-1.485-5.763 1.28-9.614 2.742-3.88 6.616-5.834 8.68-4.378 2.042 1.452 1.47 5.768-1.278 9.643zm-133.3-20.11l2.877-6.18H64.012l-2.878 6.18h14.288L60.61 76.915h9.553l14.818-30.09h13.06z" fill="#006ABA" mask="url(#b)"/></g><g transform="translate(100 247.245)"><mask id="d" fill="#fff"><use xlink:href="#c"/></mask><path d="M21.383 14.884c0-3.59-.747-6.31-2.24-8.16-1.497-1.846-3.63-2.77-6.41-2.77-1.295 0-2.472.238-3.528.71-1.06.478-1.966 1.17-2.72 2.08-.753.913-1.334 2.048-1.745 3.407-.41 1.36-.614 2.925-.614 4.692 0 1.69.185 3.21.556 4.556.368 1.345.91 2.495 1.626 3.445.715.95 1.606 1.683 2.678 2.198 1.07.515 2.32.772 3.748.772 1.375 0 2.6-.257 3.67-.77 1.07-.516 1.977-1.248 2.718-2.2.74-.95 1.302-2.1 1.686-3.444.382-1.346.575-2.852.575-4.514m4.125-.062c0 2.01-.257 3.863-.774 5.554-.515 1.694-1.302 3.153-2.36 4.385-1.057 1.23-2.387 2.196-3.987 2.896-1.6.702-3.484 1.052-5.653 1.052-2.088 0-3.927-.33-5.513-.993-1.587-.66-2.916-1.592-3.987-2.795-1.07-1.205-1.877-2.65-2.42-4.345C.27 18.885 0 17.007 0 14.943c0-2.01.258-3.86.774-5.554.516-1.694 1.295-3.154 2.34-4.386C4.16 3.774 5.48 2.81 7.082 2.11c1.6-.703 3.483-1.053 5.652-1.053 2.09 0 3.927.33 5.515.993 1.585.662 2.914 1.592 3.985 2.798 1.072 1.203 1.885 2.65 2.44 4.342.556 1.694.833 3.57.833 5.632" fill="#006ABA" mask="url(#d)"/></g><path d="M165.298 274.922c0 .477-.238.715-.714.715h-2.54c-.185 0-.343-.02-.475-.06-.133-.04-.272-.12-.417-.237-.146-.12-.3-.306-.457-.556-.16-.25-.37-.588-.635-1.012l-11.98-19.955c-.106-.21-.223-.317-.357-.317-.105 0-.158.132-.158.396v21.026c0 .477-.212.715-.634.715h-1.864c-.423 0-.636-.238-.636-.715v-25.55c0-.475.24-.71.715-.71h3.45c.265 0 .47.038.617.117.145.078.297.252.456.514l11.94 19.995c.132.21.25.317.357.317.105 0 .16-.132.16-.398v-19.837c0-.476.21-.712.634-.712h1.943c.16 0 .297.06.416.178.118.12.178.297.178.535v25.55z" fill="#006ABA"/><g transform="translate(183.254 247.245)"><mask id="f" fill="#fff"><use xlink:href="#e"/></mask><path d="M22.627 26.24c0 .472-.185.81-.555 1.02-.847.445-1.865.795-3.055 1.055-1.19.262-2.552.394-4.086.394-2.088 0-3.993-.274-5.712-.815-1.72-.54-3.187-1.354-4.403-2.44-1.217-1.084-2.162-2.46-2.836-4.126-.676-1.666-1.013-3.622-1.013-5.872 0-2.248.33-4.263.992-6.05.66-1.786 1.598-3.298 2.815-4.542C5.99 3.622 7.472 2.676 9.218 2.03c1.746-.647 3.703-.973 5.872-.973 1.507 0 2.856.14 4.046.418 1.19.277 2.155.628 2.897 1.052.396.21.594.53.594.95v1.707c0 .423-.198.633-.594.633-.16 0-.412-.092-.755-.277-.345-.186-.774-.39-1.29-.615-.514-.224-1.13-.427-1.844-.613-.714-.185-1.547-.28-2.5-.28-3.517 0-6.155 1.02-7.913 3.06-1.76 2.042-2.638 4.85-2.638 8.425 0 3.393.854 5.96 2.56 7.694 1.705 1.736 4.17 2.602 7.398 2.602 1.19 0 2.19-.092 2.995-.277.807-.185 1.467-.39 1.983-.614.516-.223.92-.432 1.21-.617.29-.185.53-.277.715-.277.45 0 .674.213.674.636v1.58z" fill="#006ABA" mask="url(#f)"/></g><g transform="translate(222.01 247.245)"><mask id="h" fill="#fff"><use xlink:href="#g"/></mask><path d="M21.645 14.884c0-3.59-.748-6.31-2.24-8.16-1.497-1.846-3.63-2.77-6.41-2.77-1.295 0-2.472.238-3.528.71-1.06.478-1.965 1.17-2.72 2.08-.753.913-1.334 2.048-1.744 3.407-.41 1.36-.615 2.925-.615 4.692 0 1.69.185 3.21.556 4.556.37 1.345.913 2.495 1.626 3.445.715.95 1.606 1.683 2.678 2.198 1.07.515 2.32.772 3.748.772 1.375 0 2.6-.257 3.67-.77 1.07-.516 1.977-1.248 2.718-2.2.74-.95 1.302-2.1 1.686-3.444.382-1.346.575-2.852.575-4.514m4.125-.062c0 2.01-.257 3.863-.774 5.554-.515 1.694-1.302 3.153-2.36 4.385-1.057 1.23-2.387 2.196-3.987 2.896-1.6.702-3.485 1.052-5.654 1.052-2.088 0-3.927-.33-5.513-.993-1.588-.66-2.917-1.592-3.988-2.795-1.07-1.205-1.877-2.65-2.42-4.345-.542-1.69-.812-3.568-.812-5.632 0-2.01.257-3.86.774-5.554.515-1.694 1.294-3.154 2.34-4.386C4.42 3.774 5.742 2.81 7.343 2.11c1.6-.703 3.483-1.053 5.652-1.053 2.09 0 3.928.33 5.515.993 1.587.662 2.916 1.592 3.987 2.798 1.073 1.203 1.885 2.65 2.44 4.342.556 1.694.833 3.57.833 5.632" fill="#006ABA" mask="url(#h)"/></g><path d="M280.785 274.922c0 .477-.25.715-.752.715h-12.656c-.45 0-.674-.238-.674-.715v-25.55c0-.475.225-.71.674-.71h2.54c.476 0 .713.235.713.71v22.853c0 .344.16.515.477.515h8.926c.5 0 .752.238.752.714v1.468z" fill="#006ABA"/><g transform="translate(295.215 247.245)"><mask id="j" fill="#fff"><use xlink:href="#i"/></mask><path d="M22.092 14.884c0-3.59-.748-6.31-2.24-8.16-1.495-1.846-3.632-2.77-6.41-2.77-1.295 0-2.472.238-3.53.71-1.058.478-1.962 1.17-2.717 2.08-.753.913-1.336 2.048-1.745 3.407-.41 1.36-.615 2.925-.615 4.692 0 1.69.184 3.21.554 4.556.37 1.345.912 2.495 1.627 3.445.714.95 1.606 1.683 2.677 2.198 1.07.515 2.32.772 3.75.772 1.375 0 2.598-.257 3.668-.77 1.07-.516 1.977-1.248 2.72-2.2.738-.95 1.3-2.1 1.684-3.444.383-1.346.576-2.852.576-4.514m4.125-.062c0 2.01-.258 3.863-.774 5.554-.515 1.694-1.3 3.153-2.36 4.385-1.06 1.23-2.388 2.196-3.987 2.896-1.6.702-3.485 1.052-5.653 1.052-2.088 0-3.928-.33-5.514-.993-1.59-.66-2.917-1.592-3.99-2.795-1.07-1.205-1.876-2.65-2.418-4.345C.98 18.885.71 17.007.71 14.943c0-2.01.257-3.86.774-5.554.514-1.694 1.294-3.154 2.34-4.386C4.866 3.774 6.19 2.81 7.788 2.11c1.6-.703 3.485-1.053 5.653-1.053 2.09 0 3.928.33 5.514.993 1.587.662 2.917 1.592 3.987 2.798 1.07 1.203 1.884 2.65 2.44 4.342.556 1.694.833 3.57.833 5.632" fill="#006ABA" mask="url(#j)"/></g><path d="M361.055 273.46c0 .296-.074.537-.218.725-.147.188-.47.386-.972.603-.69.294-1.648.562-2.877.804-1.23.24-2.572.36-4.026.36-2.09 0-3.995-.27-5.713-.81-1.72-.542-3.19-1.355-4.405-2.44-1.216-1.085-2.16-2.462-2.836-4.127-.676-1.665-1.012-3.623-1.012-5.87 0-2.25.33-4.265.99-6.05.662-1.786 1.6-3.3 2.818-4.542 1.216-1.245 2.697-2.19 4.443-2.838 1.744-.648 3.7-.972 5.87-.972 1.507 0 2.803.12 3.888.36 1.085.234 2.01.5 2.776.79.556.212.906.397 1.053.557.144.156.218.384.218.673v1.747c0 .423-.21.633-.635.633-.16 0-.416-.092-.773-.277-.358-.185-.814-.39-1.37-.615-.554-.222-1.208-.428-1.963-.613-.754-.185-1.607-.28-2.558-.28-3.546 0-6.203 1.018-7.975 3.05-1.77 2.033-2.656 4.83-2.656 8.395 0 3.38.852 5.948 2.557 7.704 1.708 1.754 4.173 2.632 7.4 2.632 1.534 0 2.592-.1 3.173-.297.583-.2.874-.48.874-.852v-7.656c0-.477.24-.715.715-.715h2.498c.476 0 .715.238.715.715v9.207z" fill="#006ABA"/><g transform="translate(377.033 247.245)"><mask id="l" fill="#fff"><use xlink:href="#k"/></mask><path d="M22.407 1.81c0 .24-.093.504-.277.795l-7.737 13.687c-.185.344-.304.62-.357.832-.053.213-.08.583-.08 1.11v9.443c0 .477-.224.715-.674.715h-2.618c-.423 0-.634-.238-.634-.715V18.75c0-.526-.033-.905-.1-1.13-.065-.225-.22-.56-.456-1.01L1.42 2.643c-.132-.21-.217-.37-.257-.477-.04-.103-.06-.21-.06-.317 0-.13.06-.238.18-.316.117-.08.258-.118.416-.118h2.854c.24 0 .42.045.536.137.12.093.246.244.376.458l6.31 11.464c.13.267.29.397.476.397.132 0 .277-.13.436-.396L18.915 2.01c.132-.238.265-.398.397-.476.132-.08.32-.118.554-.118h1.984c.37 0 .557.13.557.395" fill="#006ABA" mask="url(#l)"/></g></g></svg>