<svg width="500" height="400" viewBox="0 0 500 400" xmlns="http://www.w3.org/2000/svg" xmlns:xlink="http://www.w3.org/1999/xlink"><title>Customer-Sanofi Blue</title><defs><path id="a" d="M26.855 41.6H0V.084h26.855z"/><path id="c" d="M68.552.292H.534v36.253h68.018V.292z"/></defs><g fill="none" fill-rule="evenodd"><path fill="#F8F8F8" d="M0 0h500v400H0z"/><path fill="#006ABA" d="M348.15 281.538H354v-40.403h-5.85M283.94 240.863h2.45l2.04.272c22.79 5.87 20.936 37.798-2.448 40.675H281.9c-23.366-3.44-25.178-34.77-2.04-40.675l2.04-.272h2.04zm0 5.577l-2.856.272-2.992.952c-12.967 5.818-10.98 25.542 2.992 28.568l2.857.272 2.994-.272c14.583-2.854 15.483-23.872 2.857-28.568l-2.856-.952-2.993-.272z"/><g transform="translate(146 240.508)"><mask id="b" fill="#fff"><use xlink:href="#a"/></mask><path d="M13.74 5.388h-1.497l-1.088.272-1.224.544-1.224.953-.544.815-.544 1.225-.272 1.088v1.497l.272.816.272 1.224.816.953.953.543 2.583 1.09 8.162 2.99 1.77.818 1.223.952 1.496 1.77 1.09 1.767c5.63 16-17.593 23.467-24.895 9.66l-.818-2.45L0 29.33h5.577l.272 1.768.544 1.498.952 1.088.816 1.224 1.225.544 1.088.544 1.496.408h2.994l1.088-.408 1.496-.544 1.225-.544c3.02-3.526 3.447-7.6-.952-10.203L15.51 23.48l-3.265-.816-3.537-1.224-2.584-1.496-2.04-1.497-1.498-1.632-.816-2.45-.408-2.583.408-2.313.545-2.313 1.224-2.04 1.36-1.498 1.77-1.497c5.157-3.487 12.57-2.42 16.73 2.584l1.497 1.77.817 2.312.273 2.447h-5.85l-.272-1.496c-.516-2.312-2.64-3.928-4.896-4.352H13.74" fill="#006ABA" mask="url(#b)"/></g><path fill="#006ABA" d="M318.494 241.135h19.046v5.577h-17.277v12.924h17.277v5.577h-17.277v16.325h-5.85v-36.322l.273-1.77.952-1.087 1.224-.953M228.302 250.52v31.018h-5.85v-36.594l.273-1.77.952-1.087 1.088-.952 1.77-.273h.95l1.09.545.543.68.953.816 17.55 29.248.272-31.015h5.85v36.594l-.273 1.767-.817 1.225-1.497.816-1.496.272h-1.09l-.95-.272-.817-.545-.68-.952M187.9 270.11l-4.082 11.428h-6.258l14.42-38.09.545-1.09.952-.95 1.088-.273 1.225-.272 1.224.272 1.088.272.952.952.544 1.087 14.284 38.09h-6.12l-4.083-11.426H187.9zm7.89-21.357l-5.85 16.052h11.97l-6.12-16.052z"/><g transform="translate(231.577 116.302)"><mask id="d" fill="#fff"><use xlink:href="#c"/></mask><path d="M68.552 36.545l-3.265-4.08-1.496-1.77-1.768-1.496c-7.604-6.565-17.86-4.896-26.662-2.042l-6.94 2.04-3.535.953c-9.575 1.95-19.623.89-23.534-9.385l-.544-2.722-.272-2.584.544-2.586.952-2.72c3.642-9.076 17.436-11.37 25.984-8.98l4.217.817 3.81 1.225c11.67 3.848 20.942 11.86 27.48 22.174l2.04 3.537 2.992 7.618" fill="#006ABA" mask="url(#d)"/></g><path d="M300.674 154.343l.544 3.13.952 3.536c2.208 17.536-4.476 36.013-18.5 47.068l-4.082 3.265-4.08 2.313c-15.47 8.715-35.463 8.48-50.743-.545l-3.537-2.31-3.537-2.722 2.722.952 2.856.544c13.924 2.18 25.75-1.802 34.01-13.467l3.265-5.306 2.584-5.168c6.485-14.524 11.233-30.545 29.656-31.97h3.81l4.08.68" fill="#006ABA"/><path d="M231.84 203.997l-2.722 1.224c-21.35 5.36-31.694-23.71-30.064-40.13l.272-2.857 2.04 2.585 2.313 2.313c9.606 10.052 18.378 9.3 29.656 15.51l1.088 1.224.952 1.088c4.076 5.158 3.188 12.236-.952 17.004l-1.497.953-1.088 1.087" fill="#006ABA"/></g></svg>