<svg width="500" height="400" viewBox="0 0 500 400" xmlns="http://www.w3.org/2000/svg" xmlns:xlink="http://www.w3.org/1999/xlink"><title>Customer-UCB Blue</title><defs><path id="a" d="M0 57.055h298.274V.948H0z"/></defs><g fill="none" fill-rule="evenodd"><path fill="#F8F8F8" d="M0 0h500v400H0z"/><path fill="#006ABA" d="M169.77 191.77h1.212v-19.76h-1.213"/><g transform="translate(100 170.892)"><path d="M75.118 6.763h1.184V9.25c0 .65-.11 1.155-.11 1.155h.054c.483-1.328 2.457-3.98 5.987-3.98 3.667 0 4.657 2.173 4.657 5.5v8.953h-1.187v-8.525c0-2.454-.31-4.773-3.47-4.773-2.653 0-4.998 1.867-5.7 4.49-.173.59-.23 1.242-.23 1.92v6.888h-1.185V6.763zM89.773 18.28s1.583 1.778 4.375 1.778c1.723 0 3.247-.902 3.247-2.65 0-3.587-7.763-2.573-7.763-7.172 0-2.513 2.118-3.812 4.516-3.812 2.88 0 4.178 1.524 4.178 1.524l-.705.96s-1.16-1.326-3.558-1.326c-1.61 0-3.188.732-3.188 2.57 0 3.67 7.76 2.565 7.76 7.256 0 2.258-1.916 3.81-4.513 3.81-3.415 0-5.11-2.036-5.11-2.036l.763-.902zM101.17 6.763h1.186v1.695c0 .648-.086 1.127-.086 1.127h.057s1.156-3.16 5.08-3.16c3.784 0 6.1 3.022 6.1 7.396 0 4.492-2.627 7.396-6.268 7.396-3.67 0-4.943-3.187-4.943-3.187h-.055s.114.507.114 1.24v7.254h-1.185V6.764zm6.07 13.296c2.765 0 5.022-2.285 5.022-6.24 0-3.808-2.03-6.24-4.91-6.24-2.596 0-5.025 1.84-5.025 6.27 0 3.135 1.75 6.21 4.912 6.21z" fill="#006ABA"/><mask id="b" fill="#fff"><use xlink:href="#a"/></mask><path d="M116.227 3.18h1.412V1.116h-1.413V3.18zm.112 17.697h1.183V6.762h-1.184v14.115zM121.136 6.763h1.184v2.684c0 .65-.11 1.155-.11 1.155h.054c.705-2.17 2.288-3.95 4.515-3.95.426 0 .822.083.822.083V7.92s-.34-.056-.65-.056c-2.203 0-3.585 1.866-4.205 3.955-.31.984-.427 2.03-.427 2.96v6.098h-1.184V6.763zM134.654 6.424c3.84 0 5.755 3.022 5.755 6.434 0 .315-.056.764-.056.764h-11.32c0 4.097 2.77 6.436 6.043 6.436 2.71 0 4.375-1.778 4.375-1.778l.646.99s-1.973 1.948-5.02 1.948c-3.982 0-7.284-2.88-7.284-7.37 0-4.772 3.247-7.424 6.86-7.424zm4.515 6.096c-.143-3.444-2.204-4.996-4.545-4.996-2.597 0-5 1.696-5.507 4.996h10.05zM148.627 6.424c3.556 0 4.883 3.19 4.883 3.19h.06s-.117-.507-.117-1.156V1.12h1.19v19.757h-1.19V19.1c0-.65.116-1.072.116-1.072h-.06s-1.213 3.19-5.108 3.19c-3.784 0-6.1-3.02-6.1-7.397 0-4.484 2.626-7.396 6.325-7.396m-.17 13.634c2.6 0 5.023-1.833 5.023-6.265 0-3.13-1.606-6.21-4.91-6.21-2.766 0-5.025 2.286-5.025 6.238 0 3.814 2.032 6.238 4.913 6.238M166.294 1.12h1.19v7.337c0 .65-.117 1.158-.117 1.158h.06s1.212-3.192 5.108-3.192c3.78 0 6.096 3.023 6.096 7.397 0 4.49-2.624 7.397-6.32 7.397-3.56 0-4.884-3.19-4.884-3.19h-.06s.117.51.117 1.243v1.607h-1.19V1.12zm6.072 18.938c2.766 0 5.022-2.284 5.022-6.238 0-3.81-2.03-6.24-4.91-6.24-2.6 0-5.023 1.838-5.023 6.27 0 3.134 1.605 6.208 4.91 6.208zM179.268 25s.792.68 1.75.68c1.355 0 2.204-1.214 2.767-2.543l1.014-2.345-5.843-14.028h1.268l4.66 11.264c.28.68.507 1.325.507 1.325h.06s.194-.646.48-1.325l4.655-11.264h1.27L184.6 24.182c-.62 1.47-1.805 2.62-3.585 2.62-1.353 0-2.284-.785-2.284-.785l.535-1.016zM200.578 6.594h2.514V7.81c0 .562-.057 1.044-.057 1.044h.057s1.213-2.597 4.798-2.597c3.84 0 6.263 3.05 6.263 7.48 0 4.543-2.735 7.48-6.46 7.48-3.134 0-4.377-2.34-4.377-2.34h-.055s.056.51.056 1.24v6.408h-2.738V6.595zm6.69 12.282c2.258 0 4.123-1.866 4.123-5.11 0-3.104-1.665-5.112-4.037-5.112-2.145 0-4.12 1.498-4.12 5.14 0 2.538 1.41 5.082 4.035 5.082zM223.81 11.954h.62v-.25c0-2.34-1.326-3.133-3.132-3.133-2.203 0-3.982 1.385-3.982 1.385l-1.127-2.008s2.06-1.69 5.333-1.69c3.615 0 5.647 1.974 5.647 5.59v9.03h-2.544V19.52c0-.646.06-1.124.06-1.124h-.06s-1.154 2.82-4.572 2.82c-2.457 0-4.853-1.497-4.853-4.344 0-4.72 6.21-4.918 8.61-4.918m-3.163 7.06c2.317 0 3.812-2.427 3.812-4.546v-.45h-.706c-2.064 0-5.79.143-5.79 2.71 0 1.158.907 2.286 2.683 2.286M230.353 8.993h-1.86V6.79h1.948V2.673h2.65V6.79h3.447v2.203h-3.446v6.352c0 2.853 2.007 3.22 3.05 3.22.397 0 .65-.056.65-.056v2.423s-.395.06-.96.06c-1.83 0-5.477-.566-5.477-5.337V8.993zM238.36 3.742h2.766V.948h-2.766v2.794zm.028 17.135h2.74V6.593h-2.74v14.284zM250.43 6.257c4.038 0 6.184 2.993 6.184 6.685 0 .37-.085 1.19-.085 1.19H246.11c.142 3.135 2.373 4.714 4.91 4.714 2.458 0 4.238-1.664 4.238-1.664l1.13 2s-2.12 2.034-5.537 2.034c-4.487 0-7.564-3.244-7.564-7.477 0-4.547 3.076-7.483 7.14-7.483zm3.388 5.812c-.082-2.456-1.606-3.64-3.443-3.64-2.09 0-3.782 1.3-4.178 3.64h7.62zM258.867 6.594h2.654v1.892c0 .564-.054 1.048-.054 1.048h.055c.566-1.246 2.26-3.277 5.368-3.277 3.357 0 4.908 1.834 4.908 5.472v9.148h-2.738v-8.525c0-2.002-.424-3.583-2.71-3.583-2.17 0-3.923 1.437-4.516 3.497-.17.565-.226 1.214-.226 1.92v6.69h-2.74V6.595zM274.98 8.993h-1.86V6.79h1.948V2.673h2.656V6.79h3.44v2.203h-3.44v6.352c0 2.853 1.998 3.22 3.046 3.22.395 0 .65-.056.65-.056v2.423s-.396.06-.96.06c-1.838 0-5.48-.566-5.48-5.337V8.993zM283.73 17.183s1.607 1.663 4.09 1.663c1.19 0 2.374-.622 2.374-1.777 0-2.63-7.34-2.092-7.34-6.747 0-2.6 2.314-4.066 5.165-4.066 3.13 0 4.6 1.58 4.6 1.58l-1.1 2.063s-1.27-1.274-3.527-1.274c-1.183 0-2.345.506-2.345 1.752 0 2.564 7.34 2.003 7.34 6.69 0 2.367-2.03 4.15-5.168 4.15-3.5 0-5.418-2.088-5.418-2.088l1.328-1.947zM295.395 20.877h2.88v-2.905h-2.88M69.767 31.37h6.21c5.87 0 9.852 3.61 9.852 9.878 0 6.292-3.982 9.878-9.853 9.878h-6.21V31.37zM75.78 50c5.25 0 8.776-3.08 8.776-8.752 0-5.645-3.527-8.756-8.777-8.756h-4.8V50h4.8zM89.057 37.015h1.185v2.678c0 .654-.112 1.156-.112 1.156h.055c.707-2.17 2.288-3.945 4.517-3.945.425 0 .82.083.82.083v1.185s-.338-.057-.65-.057c-2.202 0-3.585 1.86-4.21 3.95-.308.99-.42 2.03-.42 2.966v6.094h-1.185v-14.11zM97.224 33.427h1.413V31.37h-1.413v2.057zm.112 17.698h1.185v-14.11h-1.184v14.11zM100.266 37.015h1.272l4.345 11.062c.254.682.48 1.527.48 1.527h.058s.225-.845.48-1.527l4.347-11.062h1.244l-5.534 14.11h-1.128l-5.562-14.11zM119.657 36.674c3.84 0 5.76 3.018 5.76 6.438 0 .31-.055.762-.055.762h-11.32c0 4.09 2.766 6.436 6.04 6.436 2.71 0 4.377-1.783 4.377-1.783l.646.994s-1.976 1.946-5.024 1.946c-3.983 0-7.283-2.88-7.283-7.367 0-4.774 3.244-7.426 6.857-7.426zm4.52 6.098c-.142-3.446-2.203-4.996-4.546-4.996-2.596 0-4.994 1.692-5.504 4.996h10.05zM128.175 37.015h1.187v2.48c0 .65-.112 1.16-.112 1.16h.055c.48-1.33 2.455-3.98 5.984-3.98 3.67 0 4.66 2.175 4.66 5.505v8.946h-1.187V42.6c0-2.456-.312-4.768-3.474-4.768-2.652 0-4.997 1.86-5.7 4.49-.17.59-.228 1.24-.228 1.92v6.884h-1.187v-14.11zM151.406 31.37h1.187v7.338c0 .646-.112 1.156-.112 1.156h.058s1.213-3.19 5.107-3.19c3.784 0 6.1 3.018 6.1 7.397 0 4.49-2.627 7.396-6.324 7.396-3.557 0-4.882-3.19-4.882-3.19h-.057s.113.51.113 1.245v1.606h-1.187V31.37zm6.07 18.94c2.768 0 5.025-2.29 5.025-6.24 0-3.813-2.03-6.237-4.912-6.237-2.597 0-5.022 1.832-5.022 6.266 0 3.13 1.608 6.21 4.91 6.21zM164.38 55.246s.79.68 1.747.68c1.36 0 2.205-1.214 2.768-2.54l1.016-2.346-5.84-14.024h1.27l4.654 11.258c.287.68.512 1.33.512 1.33h.057s.197-.65.48-1.33l4.657-11.258h1.268l-7.255 17.413c-.62 1.468-1.804 2.625-3.586 2.625-1.35 0-2.284-.79-2.284-.79l.538-1.02zM185.86 47.43s1.61 1.665 4.092 1.665c1.183 0 2.372-.624 2.372-1.782 0-2.62-7.34-2.085-7.34-6.743 0-2.597 2.318-4.066 5.165-4.066 3.133 0 4.604 1.585 4.604 1.585l-1.105 2.053s-1.27-1.268-3.53-1.268c-1.184 0-2.338.508-2.338 1.75 0 2.57 7.338 2.006 7.338 6.688 0 2.375-2.034 4.153-5.168 4.153-3.5 0-5.42-2.087-5.42-2.087l1.327-1.95zM203.71 36.504c3.588 0 5.362 2.09 5.362 2.09l-1.297 1.92s-1.524-1.64-3.954-1.64c-2.875 0-4.966 2.146-4.966 5.084 0 2.906 2.09 5.136 5.052 5.136 2.654 0 4.404-1.92 4.404-1.92l1.103 2.007s-1.977 2.285-5.704 2.285c-4.488 0-7.65-3.19-7.65-7.476 0-4.242 3.162-7.486 7.65-7.486M211.084 33.992h2.763V31.2h-2.763v2.792zm.028 17.135h2.735V36.843h-2.735v14.284zM223.153 36.504c4.037 0 6.184 2.992 6.184 6.692 0 .366-.084 1.185-.084 1.185h-10.417c.145 3.133 2.372 4.714 4.91 4.714 2.457 0 4.235-1.665 4.235-1.665l1.133 2.003s-2.12 2.032-5.534 2.032c-4.49 0-7.568-3.247-7.568-7.476 0-4.55 3.078-7.486 7.14-7.486zm3.392 5.817c-.088-2.458-1.61-3.64-3.447-3.64-2.087 0-3.784 1.297-4.178 3.64h7.625zM231.59 36.843h2.654v1.892c0 .563-.055 1.045-.055 1.045h.054c.565-1.244 2.262-3.276 5.362-3.276 3.36 0 4.914 1.837 4.914 5.477v9.147h-2.74v-8.525c0-2.003-.42-3.584-2.708-3.584-2.175 0-3.92 1.44-4.517 3.5-.17.566-.226 1.212-.226 1.92v6.69h-2.74V36.842zM254.16 36.504c3.583 0 5.363 2.09 5.363 2.09l-1.3 1.92s-1.523-1.64-3.953-1.64c-2.877 0-4.966 2.146-4.966 5.084 0 2.906 2.09 5.136 5.05 5.136 2.655 0 4.407-1.92 4.407-1.92l1.1 2.007s-1.973 2.285-5.7 2.285c-4.49 0-7.648-3.19-7.648-7.476 0-4.242 3.157-7.486 7.65-7.486M267.57 36.504c4.032 0 6.18 2.992 6.18 6.692 0 .366-.084 1.185-.084 1.185H263.25c.142 3.133 2.373 4.714 4.912 4.714 2.454 0 4.235-1.665 4.235-1.665l1.132 2.003s-2.125 2.032-5.537 2.032c-4.487 0-7.566-3.247-7.566-7.476 0-4.55 3.08-7.486 7.143-7.486zm3.388 5.817c-.088-2.458-1.61-3.64-3.443-3.64-2.09 0-3.784 1.297-4.178 3.64h7.62z" fill="#006ABA" mask="url(#b)"/><path fill="#A3A9B0" mask="url(#b)" d="M275.947 51.127h2.882V48.22h-2.883"/><path d="M50.008 1.12v21.11c-1.68-10.86-10.255-19.432-21.11-21.11h21.11zm-28.898 0H0v21.11C1.677 11.37 10.253 2.798 21.11 1.12zM0 30.02v21.107h21.11C10.253 49.452 1.677 40.87 0 30.02zm28.898 21.107h21.11V30.02c-1.68 10.85-10.255 19.432-21.11 21.107zm7.85-26.343v-3.572h-7.86v9.824h7.86v-3.57h-4.285v-2.682h4.284zm4.645 2.682h2.768v-2.682h-2.767v2.682zm6.07 3.57H37.82V15.674h3.57v5.538h6.074v9.824zM27.7 21.212h-2.537V1.12h-.322V21.21h-.713v6.254H21.54v-6.254h-3.306v9.824h6.607v20.09h.323v-20.09H27.7v-9.824z" fill="#006ABA" mask="url(#b)"/></g></g></svg>