<svg width="500" height="400" viewBox="0 0 500 400" xmlns="http://www.w3.org/2000/svg" xmlns:xlink="http://www.w3.org/1999/xlink"><title>Customer-Regeneron Blue</title><defs><path id="a" d="M.262 35.074h32.094V.468H.262z"/><path id="c" d="M.04 35.074h32.74V.468H.04z"/></defs><g fill="none" fill-rule="evenodd"><path fill="#F8F8F8" d="M0 0h500v400H0z"/><path d="M111.115 196.277h6.714c3.844-.048 7.5-1.53 7.5-5.234 0-3.566-2.5-4.075-5.37-4.075h-6.9l-1.945 9.31zm-4.167-14.958h15.79c5.973-.094 9.864 2.267 9.864 8.658 0 4.492-3.148 8.243-7.593 8.89v.094c2.73.833 3.426 3.242 3.426 5.834 0 1.483-.234 3.705-.234 5.743 0 1.48.095 2.87.465 3.842h-7.085c-.186-.787-.326-1.482-.326-2.22 0-2.226.37-4.493.37-6.716 0-3.196-1.896-3.983-4.77-3.983h-6.853l-2.732 12.92H100l6.948-33.064zM140.382 181.32h25.237l-1.25 6.11h-17.968l-1.483 7.086h16.625l-1.205 5.65h-16.626L142 208.27h18.248l-1.296 6.112h-25.518" fill="#006ABA"/><g transform="translate(165.957 180.064)"><mask id="b" fill="#fff"><use xlink:href="#a"/></mask><path d="M23.372 30.938h-.093c-2.178 2.964-5.28 4.168-8.336 4.168C5.68 35.106.262 29.78.262 20.472.262 9.774 7.162.468 18.322.468c7.737 0 14.034 3.612 14.034 11.716h-7.27C24.897 8.2 22.397 6.58 18.37 6.58c-7.454 0-10.836 7.548-10.836 13.892 0 4.54 2.22 8.522 7.5 8.522 5.51 0 7.92-2.918 9.17-7.132h-7.64l1.158-5.418h14.03L27.955 34.32h-4.583v-3.382" fill="#006ABA" mask="url(#b)"/></g><g fill="#006ABA"><path d="M206.416 181.32h25.24l-1.252 6.11h-17.97l-1.48 7.086h16.627l-1.203 5.65H209.75l-1.713 8.104h18.244l-1.295 6.112H199.47M237.35 181.32h7.5l8.985 23.524h.092l4.726-23.525h6.667l-6.993 33.062h-7.27l-9.077-23.2h-.092l-4.722 23.2h-6.81M271.618 181.32h25.24l-1.253 6.11h-17.968l-1.48 7.086h16.625l-1.204 5.65h-16.625l-1.714 8.104h18.243l-1.296 6.112h-25.515"/></g><path d="M306.673 196.277h6.715c3.843-.048 7.502-1.53 7.502-5.234 0-3.566-2.5-4.075-5.37-4.075h-6.902l-1.945 9.31zm-4.167-14.958h15.79c5.973-.094 9.865 2.267 9.865 8.658 0 4.492-3.148 8.243-7.593 8.89v.094c2.73.833 3.427 3.242 3.427 5.834 0 1.483-.234 3.705-.234 5.743 0 1.48.094 2.87.464 3.842h-7.084c-.186-.787-.325-1.482-.325-2.22 0-2.226.37-4.493.37-6.716 0-3.196-1.897-3.983-4.77-3.983h-6.854l-2.73 12.92h-7.272l6.948-33.064z" fill="#006ABA"/><g transform="translate(330.85 180.064)"><mask id="d" fill="#fff"><use xlink:href="#c"/></mask><path d="M14.813 28.994c7.132 0 10.698-7.595 10.698-13.847 0-4.63-2.038-8.567-7.36-8.567-7.46 0-10.838 7.548-10.838 13.892 0 4.54 2.222 8.522 7.5 8.522M18.103.468c8.936 0 14.677 4.908 14.677 14.17 0 10.883-6.48 20.468-18.058 20.468-9.263 0-14.68-5.325-14.68-14.634C.04 9.774 6.94.468 18.1.468" fill="#006ABA" mask="url(#d)"/></g><path fill="#006ABA" d="M372.014 181.32h7.502l8.985 23.524h.092l4.723-23.525h6.67l-6.992 33.062h-7.272l-9.075-23.2h-.09l-4.727 23.2h-6.807"/></g></svg>