<svg width="500" height="400" viewBox="0 0 500 400" xmlns="http://www.w3.org/2000/svg"><title>Customer-LivaNova Blue</title><g fill="none" fill-rule="evenodd"><path fill="#F8F8F8" d="M0 0h500v400H0z"/><path d="M235.163 206.797h10.01v-7.312h-10.01v7.312zm-17.676.64c0-6.46-3.62-10.224-8.66-10.224-5.183 0-8.945 3.763-8.945 10.223 0 6.46 3.762 10.648 8.944 10.648 4.97 0 8.66-4.117 8.66-10.648zm0-17.606h9.37v35.566h-8.163l-1.065-4.827c-1.492 3.406-5.254 5.82-9.94 5.82-10.506 0-17.463-8.235-17.463-18.954 0-10.294 6.815-18.528 17.11-18.528 6.388 0 9.37 3.336 10.15 5.395v-4.472zm17.676 5.538h10.01v-7.596h-10.01v7.596zm0 30.028h10.01v-4.827h-10.01v4.826zm0-8.944h10.01v-5.538h-10.01v5.538zm155.467-9.016c0-6.46-3.62-10.223-8.66-10.223-5.183 0-8.946 3.763-8.946 10.223 0 6.46 3.763 10.648 8.945 10.648 4.968 0 8.66-4.117 8.66-10.648zM400 189.83v35.566h-8.164l-1.064-4.827c-1.49 3.406-5.254 5.82-9.94 5.82-10.505 0-17.462-8.235-17.462-18.954 0-10.294 6.815-18.528 17.108-18.528 6.39 0 9.37 3.336 10.152 5.395v-4.472H400zm-55.655 23.782l-8.803-23.78h-10.506l14.41 35.564h9.655l13.702-35.565h-10.01l-8.447 23.782zm-73.048-2.84L250.355 174h-15.192v9.655h10.01l23.78 41.74h12.282V174h-9.938v36.772zm43.8-3.123c0-6.745-4.188-10.082-8.945-10.082-4.614 0-8.944 3.337-8.944 10.08 0 6.603 4.33 10.01 8.944 10.01 4.757 0 8.945-3.407 8.945-10.01zm9.726 0c0 10.86-8.022 18.81-18.67 18.81-10.578 0-18.53-7.95-18.53-18.81 0-10.933 7.952-18.813 18.53-18.813 10.648 0 18.67 7.88 18.67 18.812zm-153.62 5.962l-8.733-23.78h-10.577l14.482 35.564h9.583l13.772-35.565h-10.08l-8.448 23.782zM100 199.982h10.01v-7.312H100v7.312zm0-11.43h10.01v-5.536H100v5.537zm0 23.143h10.01V204.1H100v7.595zm0-32.797h10.01v-4.827H100v4.828zm0 46.498h33.507v-9.583H100v9.583zm38.263 0h9.513V189.83h-9.513v35.566zm-.142-41.74h9.798v-9.585h-9.797v9.585z" fill="#006ABA"/></g></svg>