<svg width="500" height="400" viewBox="0 0 500 400" xmlns="http://www.w3.org/2000/svg"><title>Customer-Cartier Blue</title><g fill="none" fill-rule="evenodd"><path fill="#F8F8F8" d="M0 0h500v400H0z"/><g fill="#006ABA"><path d="M163.47 158c-2.564-.006-5.428.293-8.535 1.085 0 0-15.93 3.963-33.488 20.394 0 0-8.372 8.506-14.302 19.46 0 0-6.163 11.422-7.093 20.978 0 0-.93 10.72 5.116 16.198 0 0 6.977 6.41 22.21 5.128 0 0 9.534-1.166 19.883-7.692 0 0 5-3.263 8.257-6.293 0 0-1.512 5.477.697 9.44 0 0 2.093 3.728 6.86 4.544 0 0 3.49.7 8.49-1.166 0 0 3.14-1.398 5.232-2.447 0 0 4.302-2.33 8.488-5.593 0 0-.814 3.263 1.047 6.06 0 0 2.21 3.147 6.28 3.496 0 0 10.93.816 26.162-17.946l-10.697 17.247 9.767-.116 8.49-14.684s8.836-15.15 10.696-17.014c0 0 4.535-6.06 11.396-7.46l4.534.35s1.86.933 1.86 3.03l-3.37-.582s-1.978.233-3.024 2.33c0 0-.93 1.982-.466 3.963 0 0 .582 1.633 2.093 2.215l1.048.35 3.372-.466s5.93-2.215 14.07-12.47l-1.86 3.38-6.86 11.77-8.024 14.217s-2.326 4.66-1.28 7.458c0 0 1.047 2.68 4.536 3.38l7.558-.583s4.302-1.282 7.79-4.312l5-4.08s6.047-5.126 11.512-11.186l-.35.466s-4.766 8.74-5.58 11.654c0 0-1.86 6.176 2.442 8.623l4.883.466s4.07-.582 8.14-3.496l6.628-5.71s5.697-5.36 8.72-9.206c0 0-1.51 3.497-1.86 6.06 0 0-1.163 8.158 6.396 11.42l7.094.584s2.79-.233 7.093-1.748c0 0 10-3.263 24.07-16.2 0 0 7.092-6.525 12.092-12.352l-17.675 29.717h8.72l6.513-10.953 8.372-13.635s4.767-7.575 13.488-12.47c0 0 3.488-2.097 6.163-2.563 0 0 2.79-.584 3.373.814 0 0-3.954-.815-4.884 3.263 0 0-.93 4.08 2.325 5.36 0 0 2.442.817 4.418-.582 0 0 1.745-1.28 2.326-3.73 0 0 .464-2.446-.7-4.194 0 0-1.394-2.097-4.65-2.33 0 0-3.605-.116-10.814 4.662 0 0-5.35 3.496-7.558 5.71l5.93-10.14h-8.837s-8.37 14.22-23.138 26.455c0 0-14.42 11.77-22.56 12.12 0 0-7.906.583-8.72-5.477 0 0-.465-3.613 1.628-8.74 0 0 4.884.466 11.396-1.632 0 0 6.162-1.98 11.28-5.477 0 0 5.464-3.728 7.44-7.69 0 0 2.326-4.43-.348-8.158 0 0-4.884-4.778-15.465-.35 0 0-10.93 4.545-19.07 15.383l-2.093 3.146-.233.35-5.814 6.76-5.93 5.944s-7.21 7.108-10.814 5.01c0 0-1.396-.932-1.396-3.146 0 0 0-2.214 1.628-4.894l16.86-29.368h-7.558s-4.186 6.876-9.07 13.402c0 0-9.535 12.703-19.883 20.044 0 0-7.092 5.478-11.046 3.613 0 0-1.744-.816-1.628-3.03 0 0 .116-2.447 2.442-5.827l16.512-28.202 9.186-.116 1.162-1.166h-9.302l9.884-17.597-8.372.117s-5.814 9.906-10.233 15.85c0 0-8.14 10.72-14.883 13.634 0 0 1.162-1.515 1.28-3.846l-.118-1.865s-.465-2.447-2.79-3.612l-2.093-.583-3.953.35s-4.65 1.05-8.953 4.778l3.604-6.06h-8.372s-7.558 13.518-17.442 25.055c0 0-12.907 14.917-20 13.17 0 0-2.093-1.05-2.21-3.614 0 0 0-2.563 2.21-6.175l16.86-28.552-8.37.117-2.676 4.66-1.744 3.38s.35-1.048 0-3.262c0 0-.698-5.244-5.698-6.293l-3.953-.35s-10-.116-21.395 9.906c0 0-7.79 6.993-13.72 17.598 0 0-11.862 11.07-24.42 13.518 0 0-11.163 2.33-15.93-2.68 0 0-5.233-5.36-5.233-14.684 0 0 .116-11.07 8.023-26.104 0 0 8.373-12.353 13.49-17.947 0 0 13.022-14.333 26.51-17.945 0 0 11.047-2.914 17.21 2.097 0 0 5.232 4.312 5.697 13.052l3.024-5.127s3.836-6.06 7.208-9.556c0 0-3.14 1.4-6.977 1.865 0 0-4.766.583-7.092-.815 0 0-5.18-3.28-13.557-3.3zm28.398 41.18c3.407.02 5.16 1.626 5.16 1.626 4.07 3.73.814 10.72.814 10.72-6.28 13.053-15.465 20.978-15.465 20.978l-5.58 3.962c-8.722 4.312-12.443 1.282-12.443 1.282-3.023-2.564-1.744-8.39-1.744-8.39.814-3.963 4.07-9.673 4.07-9.673l6.278-9.207c5.698-6.293 12.21-9.556 12.21-9.556 2.678-1.322 4.916-1.75 6.7-1.74zm149.582 1.028c.117 0 .233.004.346.015 0 0 1.86.233 2.674 1.165 0 0 .814 1.166.58 3.496 0 0-.58 6.177-7.44 12.004 0 0-7.79 6.642-16.86 6.41l1.743-3.613s3.954-7.692 9.768-13.635c0 0 5.565-5.797 9.19-5.842z"/><path d="M306.098 187.17s0 1.515 1.163 2.68c0 0 1.047 1.05 2.675 1.05 0 0 1.512 0 2.558-1.05 0 0 1.047-1.165 1.047-2.68l-1.047-2.68s-1.162-1.05-2.558-1.05c0 0-1.628 0-2.674 1.05 0 0-1.162 1.048-1.162 2.68"/></g></g></svg>