<svg width="500" height="400" viewBox="0 0 500 400" xmlns="http://www.w3.org/2000/svg" xmlns:xlink="http://www.w3.org/1999/xlink"><title>Customer-Gilead Blue</title><defs><path id="a" d="M.002 86.877h299.004V0H.002z"/></defs><g fill="none" fill-rule="evenodd"><path fill="#F8F8F8" d="M0 0h500v400H0z"/><g transform="translate(100 156)"><path d="M113.434 41.132l-.01 15.31c-.982.402-3.06.977-6.923.977-9.483 0-15.612-5.977-15.612-15.227 0-9.17 6.33-15.097 16.123-15.097 3.706 0 6.587.582 9.342 1.886l.867.41 1.82-6.028-.678-.336c-2.007-1-6.138-2.164-11.17-2.164-16.054 0-23.368 11.17-23.368 21.55 0 6.02 2.103 11.56 5.77 15.193 4.06 4.043 9.44 6.01 16.453 6.01 6.107 0 11.12-1.586 13.564-2.53l.56-.217V41.148l-6.736-.016z" fill="#006ABA"/><mask id="b" fill="#fff"><use xlink:href="#a"/></mask><path fill="#006ABA" mask="url(#b)" d="M132.013 63.2h6.815V21.28h-6.815M158.618 56.86V21.28H151.8V63.2h24.834v-6.34M191.988 56.966V44.48h16.395v-6.233h-16.395V27.514h17.35v-6.236H185.17V63.2h25.085v-6.234M235.97 29.528c.38 1.273 4.127 11.836 5.23 14.89h-10.37s4.77-13.626 5.14-14.89zm3.5-8.25h-6.745L217.815 63.2h6.885l4.376-12.8h13.894l4.57 12.8h7.006L239.47 21.28zM293.29 26.8c-3.905-3.896-9.98-5.876-18.048-5.876l-12.718.013v6.022l12.863.035c5.92 0 10.35 1.53 13.166 4.544 2.278 2.436 3.416 5.777 3.38 9.932 0 4.603-1.36 8.473-3.937 11.196-2.996 3.168-7.687 4.834-13.565 4.817-1.78 0-3.726-.026-5.15-.18V38.328h-6.756v24.714l.766.083c2.952.32 6.173.47 10.267.47 8.383 0 15.288-2.318 19.445-6.523 3.874-4.03 6.004-9.642 6.004-15.815 0-5.904-1.924-10.768-5.716-14.456M61.56.24c0-.13-.097-.234-.217-.24h-.008c-.01 0-.015.003-.023.003C10.206 5.158 3.692 42.543 20.4 54.477c-2.88 13.495-.198 13.18-.198 13.18.51-4.02 1.272-8.015 2.24-11.93C28.962 29.423 45.097 6.473 61.362.482V.475c.113-.016.2-.113.2-.235"/><path d="M58.86 8.827c0-.132-.1-.24-.226-.24-.098 0-.182.07-.212.163-4.223 8.782-5.444 21.36-8.66 30.98-3.683 11.012-10.225 18.425-20.33 17.722v26.76S2.447 71.27 2.447 50.453V11.45L24.5 9.312h.007c.126 0 .226-.106.226-.242 0-.125-.094-.23-.214-.236v-.007H0v41.625c0 23.42 29.427 36.425 29.427 36.425s29.44-13.222 29.44-36.425V8.827h-.006z" fill="#006ABA" mask="url(#b)"/></g></g></svg>