<svg width="160" height="64" viewBox="0 0 160 64" xmlns="http://www.w3.org/2000/svg" xmlns:xlink="http://www.w3.org/1999/xlink"><title>Otsuka Blue</title><defs><path id="a" d="M46.377.29H0v43.908h46.377z"/></defs><g fill="none" fill-rule="evenodd"><path fill="#FFF" d="M0 0h160v64H0z"/><g transform="translate(5 3.085)"><mask id="b" fill="#fff"><use xlink:href="#a"/></mask><path d="M28.654.377c1-.143 2.015-.068 3.023-.074 2.643.225 5.177 1.385 7.143 3.154 3.59 3.446 6.343 7.884 7.284 12.812.313 1.63.358 3.313.13 4.957-.356 2.244-1.344 4.354-2.666 6.185-1.083 1.554-2.458 2.87-3.84 4.153-3.556 3.173-7.44 5.967-11.49 8.473-2.54 1.48-5.09 3.04-7.928 3.873-1.395.454-2.872.222-4.31.274-3.156-.413-5.88-2.425-7.836-4.85-1.333-1.598-2.344-3.43-3.38-5.225C2.848 30.643 1.24 26.955.4 23.06-.13 20.966-.19 18.7.566 16.65 1.46 14.08 3.41 12.052 5.5 10.394c3.094-2.41 6.62-4.188 10.192-5.768 2.628-1.106 5.285-2.16 8.013-2.993 1.618-.53 3.268-.98 4.95-1.257" fill="#006ABA" mask="url(#b)"/></g><path d="M125.216 36.87c.302-.11.72-.142.94.14.193.27.236.61.237.934.002 4.515-.012 9.032.007 13.546 3.282-2.364 6.517-4.794 9.784-7.18.24-.182.61-.308.84-.03.218.29.01.64-.25.81-2.666 1.998-5.332 3.992-8 5.983-.26.18-.54.352-.69.637 2.975 2.387 5.947 4.777 8.92 7.167.292.237.632.654.354 1.03-.198.503-.862.463-1.21.152-3.26-2.598-6.488-5.23-9.747-7.826-.022 2.313-.003 4.626-.008 6.937-.008.364-.05.766-.314 1.043-.483.25-1.195.046-1.186-.58-.032-7.277.003-14.557-.017-21.836-.012-.333.044-.72.34-.927M80.315 39.335c.005-.37.19-.833.62-.843.422-.1.838.273.81.703.028 1.474.017 2.952 0 4.428.8.053 1.602-.016 2.403.038.477.016.602.713.155.886-.85.057-1.703-.004-2.554.035.023 4.604-.003 9.208.012 13.812-.005.298.004.603-.075.893-.307.6-1.352.415-1.355-.297-.04-4.805-.003-9.615-.018-14.422-.814-.014-1.628.025-2.44-.01-.342-.016-.456-.46-.29-.713.192-.19.48-.202.737-.202.664 0 1.328.007 1.994.004.006-1.436-.005-2.874 0-4.31M62.91 39.048c-.76.124-1.513.324-2.205.67-2.117.96-3.57 3.01-4.218 5.197-.914 2.92-.742 6.176.52 8.968.895 1.967 2.585 3.593 4.674 4.22 2.183.648 4.625.558 6.698-.42 1.82-.88 3.155-2.555 3.876-4.42.932-2.528 1.085-5.35.36-7.952-.543-2.17-1.86-4.217-3.83-5.343-1.77-.977-3.892-1.256-5.874-.92m-.04-1.14c2.522-.337 5.225.08 7.364 1.516 2.02 1.323 3.39 3.474 4.045 5.77.302 1.2.515 2.433.51 3.673-.098 2.505-.78 5.06-2.344 7.06-1.414 1.893-3.592 3.164-5.918 3.537-2.65.444-5.536.06-7.79-1.47-1.84-1.212-3.136-3.12-3.852-5.18-.415-1.273-.612-2.607-.69-3.94.047-2.636.737-5.34 2.397-7.435 1.498-1.972 3.832-3.223 6.276-3.532M92.387 43.618c.928-.22 1.895-.11 2.842-.115 1.455.186 2.94.538 4.192 1.34.296.152.377.626.11.842-.262.267-.7.194-.996.028-.7-.398-1.403-.815-2.186-1.032-1.052-.34-2.178-.298-3.265-.217-.95.18-1.93.5-2.634 1.194-.65.647-.923 1.732-.398 2.54.725 1.213 2.242 1.434 3.452 1.915 1.913.743 4.02 1.188 5.623 2.54 1.475 1.236 1.508 3.716.178 5.07-1.193 1.29-3.005 1.764-4.703 1.89-2.456.177-5.03-.493-6.91-2.127-.228-.21-.452-.464-.5-.78-.033-.31.25-.543.512-.643.468-.05.75.392 1.06.66 1.624 1.542 3.97 2.234 6.173 1.914 1.147-.2 2.313-.662 3.067-1.584.57-.68.726-1.65.484-2.49-.284-.903-1.186-1.37-2-1.705-1.734-.626-3.463-1.273-5.204-1.884-.814-.3-1.64-.67-2.26-1.298-1.03-1.047-1.182-2.865-.274-4.038.873-1.142 2.273-1.71 3.637-2.02M106.603 44.248c.34-.126.844-.15 1.047.214.083.232.067.482.08.727-.01 2.865.002 5.73-.006 8.598-.002.667.06 1.334.107 2 .105.99.566 1.97 1.376 2.57.89.636 1.975.967 3.065.994 1.625.102 3.43-.055 4.72-1.154.845-.685 1.15-1.82 1.133-2.867v-9.988c.008-.378.017-.827.34-1.086.307-.122.698-.143.978.067.194.297.227.663.233 1.01-.004 3.224 0 6.45 0 9.674-.012 1.226-.41 2.47-1.26 3.372-1.044 1.09-2.528 1.656-3.998 1.853-2.027.195-4.216.072-5.966-1.08-1.302-.818-2.15-2.296-2.18-3.835V45.026c.008-.28.063-.638.333-.778M146.17 45.175c-1.613.237-3.065 1.27-3.864 2.686-1.403 2.357-1.488 5.364-.475 7.883.547 1.28 1.457 2.454 2.737 3.06 1.172.623 2.548.657 3.838.492 1.57-.257 2.936-1.312 3.7-2.688.94-1.748 1.23-3.803.974-5.76-.262-1.574-.813-3.186-2-4.306-1.267-1.258-3.188-1.66-4.91-1.365m-3.46.333c1.312-.985 2.987-1.394 4.613-1.337 1.523-.013 3.046.553 4.175 1.58.718.61 1.194 1.438 1.63 2.26.07-1.074-.022-2.153.05-3.224.03-.45.468-.716.89-.604.503.026.543.62.555 1.005.003 4.66-.003 9.32.003 13.98-.026.353.01.777-.267 1.046-.495.254-1.2.038-1.174-.6-.023-1.11-.1-2.237.048-3.34-.557 1.225-1.342 2.394-2.51 3.104-1.06.67-2.32.982-3.565.92-1.963.062-4.01-.582-5.397-2.016-1.305-1.325-1.968-3.173-2.13-5 .022-1.036-.1-2.09.17-3.103.406-1.816 1.364-3.58 2.907-4.67M23.385 49.138c1.246-.432 2.572.028 3.738.494 1.26.626 2.688 1.164 3.536 2.347.763 1.184.462 2.675.105 3.944-.43 1.208-1.03 2.468-2.16 3.17-.804.478-1.786.466-2.685.343-1.48-.1-2.96-.35-4.346-.885-.677-.272-1.263-.837-1.457-1.555-.317-1.06-.062-2.18.263-3.206.343-.995.698-1.995 1.25-2.897.402-.73.934-1.475 1.755-1.755" fill="#006ABA"/></g></svg>