<svg width="160" height="64" viewBox="0 0 160 64" xmlns="http://www.w3.org/2000/svg" xmlns:xlink="http://www.w3.org/1999/xlink"><title>Pierre Blue</title><defs><path id="a" d="M21.83.223H.025v27.573H21.83z"/><path id="c" d="M0 50.73h149.616V.574H0z"/></defs><g fill="none" fill-rule="evenodd"><path fill="#FFF" d="M0 0h160v64H0z"/><g transform="translate(5 7)"><path d="M83.195 23.404c-.044-1.362-.484-2.705-1.29-3.86l-.03-.036c-.3-.426-.643-.812-1.032-1.16 0 0-.138.124-.39.29-1.418.93-3.077 1.462-4.784 1.543-5.27.245-9.762-3.844-10.004-9.113-.07-1.462.18-2.877.687-4.172l.02-.05c.033 1.248.395 2.48 1.066 3.574l.023.028c.345.557.774 1.064 1.263 1.516h.004c.033-.022.062-.05.094-.076.1-.075.214-.164.297-.217 1.423-.928 3.077-1.462 4.788-1.545 5.266-.245 9.758 3.847 10 9.116.07 1.484-.193 2.92-.713 4.23v-.066z" fill="#006ABA"/><path d="M74.784 29.72c-8.024-.013-14.55-6.547-14.55-14.57 0-5.602 3.174-10.472 7.817-12.912l.08-.05c-2.37 2.2-3.835 5.453-3.674 8.932.275 5.936 5.33 10.543 11.27 10.268 1.74-.082 3.43-.582 4.93-1.452l.014-.016.243.313c1.157 1.656 1.42 3.764.647 5.63-1.688 4.073-6.776 3.858-6.776 3.858" fill="#006ABA"/><g transform="translate(67.557 .35)"><mask id="b" fill="#fff"><use xlink:href="#a"/></mask><path d="M.38 4.29C1.587.936 5.227.365 7.252.224c8.036 0 14.576 6.54 14.576 14.58 0 5.66-3.258 10.586-7.992 12.993l.025-.014c2.38-2.198 3.857-5.457 3.693-8.946C17.28 12.9 12.23 8.296 6.29 8.57c-1.748.082-3.443.588-4.945 1.464l-.242-.31C-.012 8.133-.275 6.11.38 4.292" fill="#006ABA" mask="url(#b)"/></g><path d="M0 50.518h2.557v-5.252H8.44c3.833.018 5.915-1.426 5.915-3.794 0-2.364-2.082-3.788-5.915-3.788H0v12.834zm2.557-11.396h5.027c2.884 0 4.213.822 4.213 2.35 0 1.53-1.33 2.368-4.213 2.36H2.557v-4.71z" fill="#006ABA"/><mask id="d" fill="#fff"><use xlink:href="#c"/></mask><path d="M17.784 39.545h2.29v-1.86h-2.29v1.86zm0 10.973h2.29v-9.304h-2.29v9.304zM33.806 47.573c-.404 1.194-1.726 1.81-3.613 1.81-3.046 0-4.422-1.44-4.34-3.058H36.28c.14-2.25-1.365-5.326-6.298-5.326-3.818 0-6.562 2.052-6.562 4.84.14 2.844 2.234 4.89 6.692 4.89 3.126 0 5.35-1.107 5.962-3.157h-2.268zm-7.954-2.597c.16-1.42 1.583-2.617 3.995-2.617 2.27 0 3.91 1.168 4.016 2.616h-8.01zM39.118 41.214h2.165v1.972h.048c1.11-1.493 2.64-2.244 5.127-2.187v1.613c-3.69 0-5.035 1.414-5.035 3.765v4.14h-2.304v-9.304zM48.645 41.214h2.167v1.972h.046c1.11-1.493 2.65-2.244 5.125-2.187v1.613c-3.702 0-5.046 1.414-5.046 3.765v4.14h-2.292v-9.304zM67.4 47.573c-.39 1.194-1.713 1.81-3.613 1.81-3.054 0-4.422-1.44-4.35-3.058h10.45c.128-2.25-1.376-5.326-6.32-5.326-3.794 0-6.55 2.052-6.55 4.84.136 2.844 2.246 4.89 6.69 4.89 3.137 0 5.35-1.107 5.963-3.157H67.4zm-7.964-2.597c.175-1.42 1.598-2.617 4.004-2.617 2.27 0 3.903 1.168 4.017 2.616h-8.02zM81.223 37.684h12.654v1.437H83.783v4.075h8.856v1.44h-8.857v5.883h-2.56M109.23 49.3c-.292.068-.51.082-.706.082-.732 0-.732-.323-.732-1.04v-4.785c0-2.173-2.72-2.558-5.22-2.558-3.1 0-5.777.818-5.917 3.11h2.293c.114-1.363 1.54-1.75 3.484-1.75 1.46 0 3.107.205 3.107 1.543 0 1.135-2.16 1.04-4.705 1.363-2.374.304-4.718.752-4.718 2.86 0 1.854 2.08 2.605 4.627 2.605 1.92 0 3.633-.442 4.895-1.43 0 .997.766 1.43 1.935 1.43.74 0 1.253-.08 1.656-.25V49.3zm-3.73-2.012c0 .837-1.238 2.094-4.26 2.094-1.403 0-2.697-.356-2.697-1.36 0-1.143 1.294-1.5 2.802-1.678 1.54-.18 3.28-.197 4.155-.626v1.57zM111.986 50.518h2.292v-1.236h.058c1.03 1.09 3.067 1.45 4.502 1.45 4.26 0 6.37-2.206 6.37-4.845 0-2.615-2.134-4.888-6.43-4.888-1.91 0-3.692.452-4.442 1.48h-.058v-4.796h-2.292v12.834zm10.79-4.724c0 1.81-1.055 3.588-4.18 3.588-3.163 0-4.4-1.675-4.4-3.53 0-1.74 1.194-3.493 4.26-3.493 2.972 0 4.32 1.68 4.32 3.434zM128.365 41.214h2.154v1.972h.056c1.112-1.493 2.64-2.244 5.127-2.187v1.613c-3.702 0-5.046 1.414-5.046 3.765v4.14h-2.292v-9.304zM147.12 47.573c-.404 1.194-1.74 1.81-3.61 1.81-3.06 0-4.436-1.44-4.354-3.058h10.454c.125-2.25-1.393-5.326-6.322-5.326-3.81 0-6.554 2.052-6.554 4.84.13 2.844 2.234 4.89 6.693 4.89 3.125 0 5.34-1.107 5.96-3.157h-2.267zm-7.964-2.597c.174-1.42 1.6-2.617 3.992-2.617 2.282 0 3.914 1.168 4.02 2.616h-8.012z" fill="#006ABA" mask="url(#d)"/></g></g></svg>